<?xml version="1.0" encoding="utf-8"?>
<!-- Generator: Adobe Illustrator 24.2.1, SVG Export Plug-In . SVG Version: 6.00 Build 0)  -->
<svg version="1.1" id="Logo" xmlns="http://www.w3.org/2000/svg" xmlns:xlink="http://www.w3.org/1999/xlink" x="0px" y="0px"
	 viewBox="0 0 1260 265" style="enable-background:new 0 0 1260 265;" xml:space="preserve">
<style type="text/css">
	.st0{fill:#FFFFFF;}
</style>
<g>
	<g>
		<path class="st0" d="M23.6,112.7l22.6-22.6h129.6c0.9,0,1.7,0.5,2.1,1.3l4.3,8.6c0.5,0.9,1.4,1.5,2.4,1.5h47.8l5.7,5.7H82.6
			c-0.8,0-1.5,0.4-1.8,1.1l-1.5,3c-0.5,0.9-1.4,1.5-2.4,1.5L23.6,112.7z"/>
		<path class="st0" d="M91.2,84.5c0.9-0.1,1.8-0.6,2.2-1.4l2.9-5.9c0.3-0.7,1-1.1,1.8-1.1l108.7,0l-5.7-5.7H169
			c-1,0-1.9-0.6-2.4-1.5l-2.8-5.7c-0.4-0.8-1.2-1.3-2.1-1.3H74.3L51.8,84.5H91.2z"/>
		<path class="st0" d="M105.3,56.3c1-0.1,1.8-0.6,2.2-1.5l2.9-5.9c0.3-0.7,1-1.1,1.8-1.1l66.4,0l-5.7-5.7h-18.1
			c-1,0-1.9-0.6-2.4-1.5l-2.8-5.7c-0.4-0.8-1.2-1.3-2.1-1.3h-45.1L80,56.3H105.3z"/>
		<path class="st0" d="M133.5,2.7l-25.4,25.4h11.1c1,0,1.9-0.6,2.4-1.5l2.9-5.9c0.3-0.7,1-1.1,1.8-1.1h24.1L133.5,2.7z"/>
		<path class="st0" d="M23.6,152.3l22.6,22.6h129.6c0.9,0,1.7-0.5,2.1-1.3l4.3-8.6c0.5-0.9,1.4-1.5,2.4-1.5h47.8l5.7-5.7H82.6
			c-0.8,0-1.5-0.4-1.8-1.1l-1.5-3c-0.5-0.9-1.4-1.5-2.4-1.5L23.6,152.3z"/>
		<path class="st0" d="M260.4,129.6h-61.8c-1,0-1.9-0.6-2.4-1.5l-1.4-2.9c-0.4-0.8-1.2-1.3-2.1-1.3H74.1c-0.5,0-0.8-0.5-0.6-1
			l1.6-3.2c0.3-0.7-0.2-1.4-0.9-1.4l-56.3,0L3.7,132.5l14.2,14.2l56.3,0c0.7,0,1.2-0.8,0.9-1.4l-1.6-3.2c-0.2-0.4,0.1-1,0.6-1h118.7
			c0.9,0,1.7-0.5,2.1-1.3l1.4-2.9c0.5-0.9,1.4-1.5,2.4-1.5h61.8l2.9-2.9L260.4,129.6z"/>
		<path class="st0" d="M91.2,180.5c0.9,0.1,1.8,0.6,2.2,1.4l2.9,5.9c0.3,0.7,1,1.1,1.8,1.1l108.7,0l-5.7,5.7H169
			c-1,0-1.9,0.6-2.4,1.5l-2.8,5.7c-0.4,0.8-1.2,1.3-2.1,1.3H74.3l-22.6-22.6H91.2z"/>
		<path class="st0" d="M105.3,208.7c1,0.1,1.8,0.6,2.2,1.5l2.9,5.9c0.3,0.7,1,1.1,1.8,1.1l66.4,0l-5.7,5.7h-18.1
			c-1,0-1.9,0.6-2.4,1.5l-2.8,5.7c-0.4,0.8-1.2,1.3-2.1,1.3h-45.1L80,208.7H105.3z"/>
		<path class="st0" d="M133.5,262.3l-25.4-25.4h11.1c1,0,1.9,0.6,2.4,1.5l2.9,5.9c0.3,0.7,1,1.1,1.8,1.1h24.1L133.5,262.3z"/>
	</g>
	<g>
		<path class="st0" d="M769,168.2c-30.2,24.9-78.7,4.3-78.4-35.9c-0.4-40.2,48.1-60.8,78.3-36l24.6-37.4c-5.4-3.6-11.2-6.7-17.6-9.2
			c-11.5-4.6-24.1-6.9-37.7-6.9c-13.8,0-26.4,2.3-37.8,6.9c-11.5,4.6-21.3,10.9-29.5,19c-8.2,8.1-14.7,17.6-19.3,28.4
			c-4.6,10.9-7,22.6-7,35.1c0,12.6,2.3,24.3,7,35.1c4.6,10.9,11.1,20.3,19.3,28.4c8.2,8.1,18.1,14.4,29.5,19
			c11.5,4.6,24.1,6.9,37.8,6.9c13.6,0,26.2-2.3,37.7-6.9c6.4-2.5,12.3-5.7,17.8-9.3L769,168.2z"/>
		<polygon class="st0" points="420,85.1 340.4,85.1 340.4,113.4 410.5,113.4 410.5,150.7 340.4,150.7 340.4,179.9 420,179.9 
			420,217.2 296.4,217.2 296.4,47.8 420,47.8 		"/>
		<polygon class="st0" points="433,217.2 461.7,47.8 505.3,47.8 539.2,138.1 572.9,47.8 616.5,47.8 645.2,217.2 601.4,217.2 
			586.8,119.7 546.9,217.2 529.4,217.2 491.4,119.7 476.8,217.2 		"/>
		<path class="st0" d="M1120.8,217.2H1066l-42-65.1v65.1h-44V47.8h68.5c9.4,0,17.7,1.4,24.7,4.2c7,2.8,12.8,6.6,17.4,11.3
			c4.6,4.8,8,10.3,10.3,16.6c2.3,6.3,3.5,13,3.5,20.2c0,12.9-3.1,23.3-9.3,31.3c-6.2,8-15.4,13.4-27.5,16.3L1120.8,217.2z
			 M1024,123.5h8.3c8.7,0,15.3-1.8,20-5.4c4.6-3.6,7-8.8,7-15.5c0-6.7-2.3-11.9-7-15.5c-4.6-3.6-11.3-5.4-20-5.4h-8.3V123.5z"/>
		<path class="st0" d="M962.5,97.4c-4.6-10.9-11.1-20.3-19.4-28.4c-8.3-8.1-18.2-14.4-29.8-19c-11.5-4.6-24.1-6.9-37.7-6.9
			c-13.8,0-26.4,2.3-37.8,6.9c-11.5,4.6-21.3,10.9-29.5,19c-8.2,8.1-14.7,17.6-19.3,28.4c-4.6,10.9-7,22.6-7,35.1
			c0,12.6,2.3,24.3,7,35.1c4.6,10.9,11.1,20.3,19.3,28.4c8.2,8.1,18.1,14.4,29.5,19c11.5,4.6,24.1,6.9,37.8,6.9
			c13.6,0,26.2-2.3,37.7-6.9c11.5-4.6,21.4-10.9,29.8-19c8.3-8.1,14.8-17.6,19.4-28.4c4.6-10.9,7-22.6,7-35.1
			C969.5,119.9,967.1,108.2,962.5,97.4z M857.3,175.7c-17.5-6.9-29.5-24.1-29.3-43.2c-0.2-19.1,11.8-36.3,29.3-43.2
			c30.7-12.4,66.4,9.2,66.1,43.2C923.7,166.5,888,188.1,857.3,175.7z"/>
	</g>
	<g>
		<path class="st0" d="M1143.6,47.8v35.7c0,1.9,0.1,3.9,0.2,5.9c0.1,2,0.6,3.8,1.3,5.4c0.7,1.6,1.9,2.9,3.4,4c1.6,1,3.8,1.5,6.6,1.5
			s5-0.5,6.6-1.5c1.5-1,2.7-2.3,3.4-4c0.8-1.6,1.2-3.4,1.3-5.4c0.1-2,0.2-4,0.2-5.9V47.8h17v38c0,10.2-2.3,17.7-7,22.4
			c-4.7,4.7-11.8,7-21.5,7c-9.7,0-16.9-2.3-21.6-7c-4.7-4.7-7-12.2-7-22.4v-38H1143.6z"/>
		<path class="st0" d="M1212,74.9l20.8-27.1h21.1l-26,31.1l28.4,34.5h-22.1L1212,85v28.4h-17.1V47.8h17.1V74.9z"/>
	</g>
</g>
</svg>
