<?xml version="1.0" encoding="UTF-8" standalone="no"?>
<svg
   xmlns:dc="http://purl.org/dc/elements/1.1/"
   xmlns:cc="http://creativecommons.org/ns#"
   xmlns:rdf="http://www.w3.org/1999/02/22-rdf-syntax-ns#"
   xmlns:svg="http://www.w3.org/2000/svg"
   xmlns="http://www.w3.org/2000/svg"
   xmlns:sodipodi="http://sodipodi.sourceforge.net/DTD/sodipodi-0.dtd"
   xmlns:inkscape="http://www.inkscape.org/namespaces/inkscape"
   version="1.1"
   id="Layer_1"
   x="0px"
   y="0px"
   viewBox="0 0 80 80"
   style="enable-background:new 0 0 80 80;"
   xml:space="preserve"
   sodipodi:docname="metric-category-air-quality.svg"
   inkscape:version="1.0.1 (0767f8302a, 2020-10-17)"><metadata
   id="metadata45"><rdf:RDF><cc:Work
       rdf:about=""><dc:format>image/svg+xml</dc:format><dc:type
         rdf:resource="http://purl.org/dc/dcmitype/StillImage" /></cc:Work></rdf:RDF></metadata><defs
   id="defs43" /><sodipodi:namedview
   pagecolor="#ffffff"
   bordercolor="#666666"
   borderopacity="1"
   objecttolerance="10"
   gridtolerance="10"
   guidetolerance="10"
   inkscape:pageopacity="0"
   inkscape:pageshadow="2"
   inkscape:window-width="2540"
   inkscape:window-height="1421"
   id="namedview41"
   showgrid="false"
   inkscape:zoom="12.6"
   inkscape:cx="40"
   inkscape:cy="40"
   inkscape:window-x="4900"
   inkscape:window-y="247"
   inkscape:window-maximized="0"
   inkscape:current-layer="Layer_1" />
<style
   type="text/css"
   id="style2">
	.st0{fill:#73797C;}
	.st1{fill:none;stroke:#FFFFFF;stroke-miterlimit:10;}
	.st2{fill:none;}
	.st3{enable-background:new    ;}
	.st4{fill:#FFFFFF;}
</style>
<rect
   class="st0"
   width="80"
   height="80"
   id="rect4"
   style="fill:none" />
<g
   id="g14">
	<g
   id="g12">
		<path
   class="st1"
   d="M22.9,56.8H12.5l0,0c-3-0.2-5.7-1.9-6.9-4.6s-1-5.9,0.9-8.3c1.8-2.3,4.8-3.6,7.7-3.1c0-0.1,0-0.1,0-0.1    c0-4.4,3.1-8.3,7.4-9.3c4.3-1.1,8.8,1.1,10.9,5c2.5-0.9,5.2-0.5,7.3,1.1c1.1,0.8,1.9,1.7,2.5,2.8c0.5,1,0.8,2,0.9,3.2"
   id="path6" />
		<g
   id="g10">
			<path
   class="st1"
   d="M28.4,54.3c0.2,0,0.5,0,0.7,0l0,0c0-3.1,1.5-6,4-7.8c2.6-1.7,5.8-2.2,8.8-1.3c2.4-4.7,7.8-7.1,12.9-5.9     s8.9,5.8,8.9,11.1v0.1c3.5-0.6,7,0.9,9.2,3.7c2.1,2.9,2.5,6.6,1.1,9.8c-1.5,3.2-4.7,5.3-8.3,5.5v0.1H28.4c-4.2,0-7.7-3.5-7.7-7.6     S24.2,54.3,28.4,54.3L28.4,54.3z"
   id="path8" />
		</g>
	</g>
</g>
<rect
   x="3.5"
   y="7.4"
   class="st2"
   width="72.5"
   height="13.6"
   id="rect16" />
<g
   class="st3"
   id="g38">
	<path
   class="st4"
   d="M14.1,15.7H9.9l-0.6,1.6H7.1L10.7,8h2.5l3.6,9.3h-2.2L14.1,15.7z M10.4,13.9h3.1L12,9.7L10.4,13.9z"
   id="path18" />
	<path
   class="st4"
   d="M17.5,8.5c0-0.6,0.5-1.1,1.1-1.1s1.1,0.5,1.1,1.1s-0.5,1.1-1.1,1.1C18,9.5,17.5,9,17.5,8.5z M17.6,10.5h1.8   v6.8h-1.8V10.5z"
   id="path20" />
	<path
   class="st4"
   d="M21.2,10.5H23v0.9c0.5-0.6,1.3-1.1,2.2-1.1V12c-0.1,0-0.3-0.1-0.5-0.1c-0.6,0-1.4,0.3-1.7,0.8v4.5h-1.8V10.5z"
   id="path22" />
	<path
   class="st4"
   d="M37.9,15.9l0.7,0.8l-1.4,1.1L36.5,17c-0.7,0.3-1.4,0.5-2.2,0.5c-2.8,0-4.9-2-4.9-4.8s2.1-4.8,4.9-4.8   s4.9,2,4.9,4.8C39.2,13.9,38.7,15.1,37.9,15.9z M35.3,15.5l-1.1-1.2l1.4-1.1l1.1,1.2c0.3-0.5,0.5-1.1,0.5-1.8   c0-1.8-1.1-3.1-2.8-3.1s-2.8,1.3-2.8,3.1c0,1.7,1.1,3.1,2.8,3.1C34.6,15.7,35,15.6,35.3,15.5z"
   id="path24" />
	<path
   class="st4"
   d="M45.1,16.4c-0.5,0.5-1.3,1-2.4,1c-1.5,0-2.2-0.8-2.2-2.1v-4.8h1.8v4.1c0,0.9,0.5,1.2,1.2,1.2s1.2-0.4,1.5-0.8   v-4.6h1.8v6.8H45v-0.8H45.1z"
   id="path26" />
	<path
   class="st4"
   d="M52.7,16.6c-0.5,0.5-1.3,0.9-2.1,0.9c-1.1,0-2.4-0.7-2.4-2.2c0-1.6,1.3-2.2,2.4-2.2c0.9,0,1.7,0.3,2.1,0.8V13   c0-0.7-0.6-1.1-1.5-1.1c-0.7,0-1.4,0.3-2,0.8l-0.7-1.2c0.8-0.7,1.9-1.1,3-1.1c1.5,0,3,0.6,3,2.6v4.4h-1.8V16.6z M52.7,14.8   c-0.3-0.4-0.9-0.6-1.4-0.6c-0.7,0-1.3,0.4-1.3,1s0.6,1,1.3,1c0.6,0,1.1-0.2,1.4-0.6V14.8z"
   id="path28" />
	<path
   class="st4"
   d="M56.2,7.9H58v9.3h-1.8V7.9z"
   id="path30" />
	<path
   class="st4"
   d="M59.6,8.5c0-0.6,0.5-1.1,1.1-1.1s1.1,0.5,1.1,1.1s-0.5,1.1-1.1,1.1C60.1,9.5,59.6,9,59.6,8.5z M59.8,10.5h1.8   v6.8h-1.8V10.5z"
   id="path32" />
	<path
   class="st4"
   d="M63.7,15.6v-3.5h-1.1v-1.6h1.1V8.7h1.8v1.8h1.4v1.6h-1.4v3.1c0,0.4,0.2,0.7,0.6,0.7c0.3,0,0.5-0.1,0.6-0.2   l0.4,1.3c-0.3,0.2-0.7,0.4-1.5,0.4C64.3,17.4,63.7,16.8,63.7,15.6z"
   id="path34" />
	<path
   class="st4"
   d="M68.6,18.4c0.5,0,0.8-0.1,0.9-0.5l0.3-0.6l-2.7-6.9H69l1.8,4.7l1.8-4.7h1.9l-3.2,7.9c-0.5,1.3-1.4,1.6-2.6,1.6   c-0.2,0-0.7,0-0.9-0.1l0.3-1.6C68.2,18.4,68.5,18.4,68.6,18.4z"
   id="path36" />
</g>
</svg>
