<?xml version="1.0" encoding="UTF-8" standalone="no"?>
<svg
   xmlns:dc="http://purl.org/dc/elements/1.1/"
   xmlns:cc="http://creativecommons.org/ns#"
   xmlns:rdf="http://www.w3.org/1999/02/22-rdf-syntax-ns#"
   xmlns:svg="http://www.w3.org/2000/svg"
   xmlns="http://www.w3.org/2000/svg"
   xmlns:sodipodi="http://sodipodi.sourceforge.net/DTD/sodipodi-0.dtd"
   xmlns:inkscape="http://www.inkscape.org/namespaces/inkscape"
   version="1.1"
   id="Layer_1"
   x="0px"
   y="0px"
   viewBox="0 0 80 80"
   style="enable-background:new 0 0 80 80;"
   xml:space="preserve"
   sodipodi:docname="metric-category-noise-and-vibration.svg"
   inkscape:version="1.0.1 (0767f8302a, 2020-10-17)"><metadata
   id="metadata512"><rdf:RDF><cc:Work
       rdf:about=""><dc:format>image/svg+xml</dc:format><dc:type
         rdf:resource="http://purl.org/dc/dcmitype/StillImage" /></cc:Work></rdf:RDF></metadata><defs
   id="defs510" /><sodipodi:namedview
   pagecolor="#ffffff"
   bordercolor="#666666"
   borderopacity="1"
   objecttolerance="10"
   gridtolerance="10"
   guidetolerance="10"
   inkscape:pageopacity="0"
   inkscape:pageshadow="2"
   inkscape:window-width="1710"
   inkscape:window-height="1327"
   id="namedview508"
   showgrid="false"
   inkscape:zoom="12.6"
   inkscape:cx="40"
   inkscape:cy="40"
   inkscape:window-x="72"
   inkscape:window-y="27"
   inkscape:window-maximized="0"
   inkscape:current-layer="Layer_1" />
<style
   type="text/css"
   id="style451">
	.st0{fill:#73797C;}
	.st1{fill:none;}
	.st2{enable-background:new    ;}
	.st3{fill:#FFFFFF;}
	.st4{fill:none;stroke:#FFFFFF;stroke-width:0.849;stroke-linecap:round;stroke-miterlimit:10;}
	.st5{fill:none;stroke:#FFFFFF;stroke-width:0.7075;stroke-linecap:round;stroke-miterlimit:10;}
	.st6{fill:none;stroke:#FFFFFF;stroke-width:0.9517;stroke-linecap:round;stroke-miterlimit:10;}
	.st7{fill:none;stroke:#FFFFFF;stroke-width:1.1662;stroke-linecap:round;stroke-miterlimit:10;}
</style>
<rect
   class="st0"
   width="80"
   height="80"
   id="rect453"
   style="fill:none" />
<rect
   x="3.5"
   y="7.4"
   class="st1"
   width="72.5"
   height="13.6"
   id="rect455" />
<g
   class="st2"
   id="g487">
	<path
   class="st3"
   d="M18.2,11v6.3h-2V7.9h2l4.3,6.1V7.9h2v9.3h-1.9L18.2,11z"
   id="path457" />
	<path
   class="st3"
   d="M25.9,13.9c0-1.9,1.3-3.5,3.6-3.5c2.2,0,3.6,1.6,3.6,3.5s-1.3,3.6-3.6,3.6C27.3,17.4,25.9,15.8,25.9,13.9z    M31.2,13.9c0-1.1-0.6-2-1.7-2s-1.7,0.9-1.7,2s0.6,2,1.7,2S31.2,15,31.2,13.9z"
   id="path459" />
	<path
   class="st3"
   d="M34.2,8.5c0-0.6,0.5-1.1,1.1-1.1s1.1,0.5,1.1,1.1s-0.5,1.1-1.1,1.1C34.7,9.5,34.2,9,34.2,8.5z M34.4,10.5h1.8   v6.8h-1.8V10.5z"
   id="path461" />
	<path
   class="st3"
   d="M38.1,15.1c0.5,0.5,1.5,0.9,2.3,0.9s1.1-0.3,1.1-0.7c0-0.5-0.6-0.6-1.4-0.8c-1.2-0.2-2.7-0.5-2.7-2.1   c0-1.1,1-2.1,2.8-2.1c1.1,0,2.1,0.4,2.7,0.9l-0.7,1.2c-0.4-0.4-1.2-0.8-2-0.8c-0.6,0-1.1,0.2-1.1,0.6c0,0.4,0.5,0.6,1.3,0.7   c1.2,0.2,2.7,0.5,2.7,2.2c0,1.2-1.1,2.2-2.9,2.2c-1.2,0-2.3-0.4-3-1.1L38.1,15.1z"
   id="path463" />
	<path
   class="st3"
   d="M47.7,10.3c2,0,3.4,1.5,3.4,3.7v0.4h-5c0.1,0.9,0.8,1.6,1.9,1.6c0.6,0,1.4-0.3,1.8-0.7l0.8,1.1   c-0.7,0.6-1.7,0.9-2.8,0.9c-2.1,0-3.6-1.4-3.6-3.6C44.2,11.9,45.6,10.3,47.7,10.3z M46,13.3h3.3c0-0.6-0.5-1.5-1.7-1.5   C46.6,11.8,46.1,12.6,46,13.3z"
   id="path465" />
	<path
   class="st3"
   d="M64,17.3h-2.3c-0.2-0.2-0.4-0.4-0.7-0.7c-0.7,0.5-1.5,0.9-2.5,0.9c-1.7,0-3.1-0.9-3.1-2.7c0-1.4,1-2.2,2-2.7   c-0.4-0.7-0.6-1.4-0.6-2c0-1.3,1.1-2.2,2.7-2.2c1.3,0,2.5,0.7,2.5,2c0,1.4-1.1,2-2.3,2.6c0.3,0.4,0.6,0.7,0.8,1   c0.3,0.3,0.5,0.6,0.8,1c0.4-0.6,0.7-1.3,0.9-1.8l1.4,0.7c-0.3,0.7-0.8,1.5-1.3,2.3C62.7,16,63.3,16.6,64,17.3z M60.1,15.6   c-0.4-0.5-0.8-0.9-1-1.2c-0.3-0.4-0.6-0.8-0.9-1.2c-0.5,0.3-0.8,0.8-0.8,1.4c0,0.9,0.7,1.5,1.4,1.5C59.2,16,59.7,15.9,60.1,15.6z    M59,11.3c0.8-0.4,1.4-0.8,1.4-1.5C60.4,9.3,60,9,59.6,9c-0.6,0-1,0.4-1,1C58.6,10.5,58.7,10.9,59,11.3z"
   id="path467" />
	<path
   class="st3"
   d="M10.4,24.7h2.3l2.6,7.2l2.6-7.2h2.3L16.6,34H14L10.4,24.7z"
   id="path469" />
	<path
   class="st3"
   d="M20.8,25.3c0-0.6,0.5-1.1,1.1-1.1s1.1,0.5,1.1,1.1s-0.5,1.1-1.1,1.1C21.3,26.3,20.8,25.8,20.8,25.3z M21,27.3   h1.8v6.8H21V27.3z"
   id="path471" />
	<path
   class="st3"
   d="M24.5,24.7h1.8v3.4c0.5-0.7,1.3-1,2.1-1c1.7,0,3,1.3,3,3.6s-1.3,3.5-3,3.5c-0.8,0-1.6-0.4-2.1-1v0.9h-1.8V24.7   z M27.8,32.7c1,0,1.7-0.8,1.7-2s-0.7-2-1.7-2c-0.6,0-1.2,0.3-1.5,0.8v2.4C26.6,32.3,27.2,32.7,27.8,32.7z"
   id="path473" />
	<path
   class="st3"
   d="M32.7,27.3h1.8v0.9c0.5-0.6,1.3-1.1,2.2-1.1v1.7c-0.1,0-0.3-0.1-0.5-0.1c-0.6,0-1.4,0.3-1.7,0.8V34h-1.8V27.3z   "
   id="path475" />
	<path
   class="st3"
   d="M41.8,33.4c-0.5,0.5-1.3,0.9-2.1,0.9c-1.1,0-2.4-0.7-2.4-2.2c0-1.6,1.3-2.2,2.4-2.2c0.9,0,1.7,0.3,2.1,0.8   v-0.9c0-0.7-0.6-1.1-1.5-1.1c-0.7,0-1.4,0.3-2,0.8l-0.7-1.2c0.8-0.7,1.9-1.1,3-1.1c1.5,0,3,0.6,3,2.6v4.4h-1.8V33.4z M41.8,31.6   c-0.3-0.4-0.9-0.6-1.4-0.6c-0.7,0-1.3,0.4-1.3,1c0,0.6,0.6,1,1.3,1c0.6,0,1.1-0.2,1.4-0.6V31.6z"
   id="path477" />
	<path
   class="st3"
   d="M45.7,32.4v-3.5h-1.1v-1.6h1.1v-1.8h1.8v1.8h1.4v1.6h-1.4V32c0,0.4,0.2,0.7,0.6,0.7c0.3,0,0.5-0.1,0.6-0.2   l0.4,1.3c-0.3,0.2-0.7,0.4-1.5,0.4C46.4,34.2,45.7,33.6,45.7,32.4z"
   id="path479" />
	<path
   class="st3"
   d="M49.9,25.3c0-0.6,0.5-1.1,1.1-1.1s1.1,0.5,1.1,1.1s-0.5,1.1-1.1,1.1C50.4,26.3,49.9,25.8,49.9,25.3z    M50.1,27.3h1.8v6.8h-1.8V27.3z"
   id="path481" />
	<path
   class="st3"
   d="M53.2,30.7c0-1.9,1.3-3.5,3.6-3.5c2.2,0,3.6,1.6,3.6,3.5c0,1.9-1.3,3.6-3.6,3.6C54.5,34.2,53.2,32.6,53.2,30.7   z M58.5,30.7c0-1.1-0.6-2-1.7-2s-1.7,0.9-1.7,2s0.6,2,1.7,2S58.5,31.8,58.5,30.7z"
   id="path483" />
	<path
   class="st3"
   d="M66.2,30c0-0.9-0.5-1.3-1.2-1.3s-1.2,0.4-1.5,0.8v4.6h-1.8v-6.8h1.8v0.9c0.4-0.5,1.3-1.1,2.4-1.1   c1.5,0,2.2,0.8,2.2,2.2v4.8h-1.8L66.2,30L66.2,30z"
   id="path485" />
</g>
<path
   class="st4"
   d="M33,50.5c0.1-0.2,1-5.6,6.6-5.8c4.4-0.2,7.2,0.7,8.4,3.4c1.1,2.5,1,6.9-2.8,11.1c-1.7,1.8-1.5,6.4-2.3,7.7  c-0.9,1.5-3.9,3.1-6.3,2c-2.3-1-2.7-4-2.8-4.3"
   id="path489" />
<path
   class="st5"
   d="M44.5,54.4L44.5,54.4c-0.1,0,0.6-1.4,0.4-2.6c-0.2-1.3-1.1-2.1-1.5-2.4c-0.9-0.8-2-1.1-2.7-1.2  c-2.5-0.3-4.8,4-5.5,10.1"
   id="path491" />
<path
   class="st5"
   d="M36.9,52.4c2.7,1.5,3.8,3.5,4,5.3c0.3,2.3-1.1,3.6-3.5,5.5"
   id="path493" />
<path
   class="st5"
   d="M54,48.8c0.7,1.1,2.6,4,2.6,8.2c0,4.3-1.9,7.4-2.6,8.4"
   id="path495" />
<path
   class="st6"
   d="M57.3,45.6c1,1.4,3.4,5.4,3.5,11c0.1,5.8-2.5,9.9-3.5,11.3"
   id="path497" />
<path
   class="st7"
   d="M61.7,43c1.2,1.7,4.2,6.6,4.3,13.5c0.1,7.1-3.1,12.2-4.3,13.9"
   id="path499" />
<path
   class="st5"
   d="M26.9,48.7c-0.7,1.1-2.6,4-2.6,8.2c0,4.3,1.9,7.4,2.6,8.4"
   id="path501" />
<path
   class="st6"
   d="M23.6,45.5c-1,1.4-3.4,5.4-3.5,11c-0.1,5.8,2.5,9.9,3.5,11.3"
   id="path503" />
<path
   class="st7"
   d="M19.2,42.9c-1.2,1.7-4.2,6.6-4.3,13.5c-0.1,7.1,3.1,12.2,4.3,13.9"
   id="path505" />
</svg>
