<?xml version="1.0" encoding="UTF-8" standalone="no"?>
<svg
   xmlns:dc="http://purl.org/dc/elements/1.1/"
   xmlns:cc="http://creativecommons.org/ns#"
   xmlns:rdf="http://www.w3.org/1999/02/22-rdf-syntax-ns#"
   xmlns:svg="http://www.w3.org/2000/svg"
   xmlns="http://www.w3.org/2000/svg"
   xmlns:sodipodi="http://sodipodi.sourceforge.net/DTD/sodipodi-0.dtd"
   xmlns:inkscape="http://www.inkscape.org/namespaces/inkscape"
   version="1.1"
   id="Layer_1"
   x="0px"
   y="0px"
   viewBox="0 0 80 80"
   style="enable-background:new 0 0 80 80;"
   xml:space="preserve"
   sodipodi:docname="metric-category-ceequal.svg"
   inkscape:version="1.0.1 (0767f8302a, 2020-10-17)"><metadata
   id="metadata142"><rdf:RDF><cc:Work
       rdf:about=""><dc:format>image/svg+xml</dc:format><dc:type
         rdf:resource="http://purl.org/dc/dcmitype/StillImage" /></cc:Work></rdf:RDF></metadata><defs
   id="defs140" /><sodipodi:namedview
   pagecolor="#ffffff"
   bordercolor="#666666"
   borderopacity="1"
   objecttolerance="10"
   gridtolerance="10"
   guidetolerance="10"
   inkscape:pageopacity="0"
   inkscape:pageshadow="2"
   inkscape:window-width="2134"
   inkscape:window-height="1712"
   id="namedview138"
   showgrid="false"
   inkscape:zoom="12.6"
   inkscape:cx="40"
   inkscape:cy="40"
   inkscape:window-x="72"
   inkscape:window-y="27"
   inkscape:window-maximized="0"
   inkscape:current-layer="Layer_1" />
<style
   type="text/css"
   id="style45">
	.st0{fill:#73797C;}
	.st1{fill:#FFFFFF;}
	.st2{enable-background:new    ;}
</style>
<rect
   class="st0"
   width="80"
   height="80"
   id="rect47"
   style="fill:none" />
<g
   id="g119">
	<g
   id="g53">
		<g
   id="g51">
			<path
   class="st1"
   d="M39.3,60.6c-2.2,0-4.3-0.9-5.8-2.4c-3.2-3.2-3.2-8.4,0-11.6c1.5-1.5,3.6-2.4,5.8-2.4s4.3,0.9,5.8,2.4     c3.2,3.2,3.2,8.4,0,11.6C43.6,59.7,41.5,60.6,39.3,60.6z M39.3,45.4c-1.9,0-3.6,0.7-4.9,2.1c-2.7,2.7-2.7,7.2,0,9.9     c1.3,1.3,3.1,2.1,4.9,2.1c1.9,0,3.6-0.7,4.9-2.1c2.7-2.7,2.7-7.2,0-9.9C43,46.1,41.2,45.4,39.3,45.4z"
   id="path49" />
		</g>
	</g>
	<g
   id="g59">
		<g
   id="g57">
			
				<rect
   x="45.6"
   y="57.1"
   transform="matrix(0.7071 -0.7071 0.7071 0.7071 -28.3137 50.0081)"
   class="st1"
   width="1.2"
   height="4.2"
   id="rect55" />
		</g>
	</g>
	<g
   id="g65">
		<g
   id="g63">
			<path
   class="st1"
   d="M56.6,73c-0.9,0-1.8-0.4-2.5-1.1l-6.9-7.6c-1-1.1-1-2.9,0.1-3.9l0,0c0.5-0.5,1.3-0.8,2-0.8s1.4,0.3,1.9,0.7     l7.6,6.9c0.7,0.6,1.1,1.5,1.1,2.4s-0.3,1.8-1,2.4l0,0C58.3,72.7,57.5,73,56.6,73z M49.3,60.7c-0.4,0-0.9,0.2-1.2,0.5l0,0     c-0.6,0.6-0.6,1.6-0.1,2.3l6.9,7.6c0.4,0.4,1,0.7,1.6,0.7s1.1-0.2,1.5-0.6l0,0c0.4-0.4,0.6-1,0.6-1.6s-0.3-1.1-0.7-1.5l-7.6-6.9     C50.1,60.8,49.7,60.7,49.3,60.7z"
   id="path61" />
		</g>
	</g>
	<g
   id="g71">
		<g
   id="g69">
			<path
   class="st1"
   d="M46,45.7c0.3,0.3,0.6,0.7,0.9,1.1v-6.9H19.1v31.5h27.8v-5.6l-0.6-0.7c-0.2-0.2-0.4-0.5-0.6-0.8v5.9H20.4     V41.1h25.3v4.4C45.8,45.5,45.9,45.6,46,45.7z"
   id="path67" />
		</g>
	</g>
	<g
   id="g77">
		<g
   id="g75">
			<polygon
   class="st1"
   points="45.7,38.7 44.5,38.7 44.5,36.4 21.6,36.4 21.6,38.7 20.4,38.7 20.4,35.2 45.7,35.2    "
   id="polygon73" />
		</g>
	</g>
	<g
   id="g83">
		<g
   id="g81">
			<polygon
   class="st1"
   points="44.5,34 43.3,34 43.3,31.8 22.8,31.8 22.8,34 21.6,34 21.6,30.5 44.5,30.5    "
   id="polygon79" />
		</g>
	</g>
	<g
   id="g89">
		<g
   id="g87">
			<path
   class="st1"
   d="M33.5,45c-0.3,0.2-0.6,0.5-0.8,0.7c-0.1,0.1-0.3,0.3-0.4,0.5h-8V45H33.5z"
   id="path85" />
		</g>
	</g>
	<g
   id="g95">
		<g
   id="g93">
			<path
   class="st1"
   d="M24.2,49.4h6.2c-0.1,0.4-0.2,0.8-0.3,1.2h-5.9C24.2,50.6,24.2,49.4,24.2,49.4z"
   id="path91" />
		</g>
	</g>
	<g
   id="g101">
		<g
   id="g99">
			<path
   class="st1"
   d="M30,53.9c0.1,0.4,0.2,0.8,0.3,1.2h-6.1v-1.2H30z"
   id="path97" />
		</g>
	</g>
	<g
   id="g107">
		<g
   id="g105">
			<path
   class="st1"
   d="M33.3,59.6h-9.1v-1.2h7.9c0.2,0.2,0.4,0.4,0.6,0.7C32.9,59.2,33.1,59.4,33.3,59.6z"
   id="path103" />
		</g>
	</g>
	<g
   id="g113">
		<g
   id="g111">
			<rect
   x="24.2"
   y="62.8"
   class="st1"
   width="17.6"
   height="1.2"
   id="rect109" />
		</g>
	</g>
	<g
   id="g117">
		<polygon
   class="st1"
   points="38.6,56.4 35.3,51.6 36.3,50.9 38.6,54.3 42.4,49 43.4,49.7   "
   id="polygon115" />
	</g>
</g>
<g
   class="st2"
   id="g135">
	<path
   class="st1"
   d="M9.1,12.6c0-2.9,2.2-4.8,4.9-4.8c2.1,0,3.3,1.1,4,2.3l-1.7,0.8C15.8,10.1,15,9.5,14,9.5   c-1.6,0-2.9,1.3-2.9,3.1s1.2,3.1,2.9,3.1c1,0,1.9-0.6,2.3-1.4l1.7,0.8c-0.7,1.2-1.8,2.3-4,2.3C11.2,17.4,9.1,15.5,9.1,12.6z"
   id="path121" />
	<path
   class="st1"
   d="M19.1,7.9h6.6v1.7h-4.6v2h4.5v1.7h-4.5v2.2h4.6v1.7h-6.6V7.9z"
   id="path123" />
	<path
   class="st1"
   d="M27.3,7.9h6.6v1.7h-4.6v2h4.5v1.7h-4.5v2.2h4.6v1.7h-6.6C27.3,17.2,27.3,7.9,27.3,7.9z"
   id="path125" />
	<path
   class="st1"
   d="M43.6,15.9l0.7,0.8l-1.4,1.1L42.1,17c-0.7,0.3-1.4,0.5-2.2,0.5c-2.8,0-4.9-2-4.9-4.8s2.1-4.8,4.9-4.8   c2.8,0,4.9,2,4.9,4.8C44.8,13.9,44.3,15.1,43.6,15.9z M40.9,15.5l-1.1-1.2l1.4-1.1l1.1,1.2c0.3-0.5,0.5-1.1,0.5-1.8   c0-1.8-1.1-3.1-2.8-3.1s-2.8,1.3-2.8,3.1c0,1.7,1.1,3.1,2.8,3.1C40.2,15.7,40.6,15.6,40.9,15.5z"
   id="path127" />
	<path
   class="st1"
   d="M46.2,7.9h2v5.5c0,1.3,0.7,2.2,2.2,2.2c1.4,0,2.1-0.9,2.1-2.2V7.9h2v5.6c0,2.3-1.3,3.9-4.2,3.9   s-4.2-1.6-4.2-3.9V7.9H46.2z"
   id="path129" />
	<path
   class="st1"
   d="M61.8,15.7h-4.2L57,17.3h-2.2L58.4,8H61l3.6,9.3h-2.2L61.8,15.7z M58.2,13.9h3.1l-1.5-4.3L58.2,13.9z"
   id="path131" />
	<path
   class="st1"
   d="M65.5,7.9h2v7.6h4v1.8h-5.9L65.5,7.9L65.5,7.9z"
   id="path133" />
</g>
</svg>
