<?xml version="1.0" encoding="UTF-8" standalone="no"?>
<svg
   xmlns:dc="http://purl.org/dc/elements/1.1/"
   xmlns:cc="http://creativecommons.org/ns#"
   xmlns:rdf="http://www.w3.org/1999/02/22-rdf-syntax-ns#"
   xmlns:svg="http://www.w3.org/2000/svg"
   xmlns="http://www.w3.org/2000/svg"
   xmlns:sodipodi="http://sodipodi.sourceforge.net/DTD/sodipodi-0.dtd"
   xmlns:inkscape="http://www.inkscape.org/namespaces/inkscape"
   version="1.1"
   id="Layer_1"
   x="0px"
   y="0px"
   viewBox="0 0 80 80"
   style="enable-background:new 0 0 80 80;"
   xml:space="preserve"
   sodipodi:docname="metric-category-water.svg"
   inkscape:version="1.0.1 (0767f8302a, 2020-10-17)"><metadata
   id="metadata651"><rdf:RDF><cc:Work
       rdf:about=""><dc:format>image/svg+xml</dc:format><dc:type
         rdf:resource="http://purl.org/dc/dcmitype/StillImage" /></cc:Work></rdf:RDF></metadata><defs
   id="defs649" /><sodipodi:namedview
   pagecolor="#ffffff"
   bordercolor="#666666"
   borderopacity="1"
   objecttolerance="10"
   gridtolerance="10"
   guidetolerance="10"
   inkscape:pageopacity="0"
   inkscape:pageshadow="2"
   inkscape:window-width="1830"
   inkscape:window-height="1475"
   id="namedview647"
   showgrid="false"
   inkscape:zoom="12.6"
   inkscape:cx="40"
   inkscape:cy="40"
   inkscape:window-x="634"
   inkscape:window-y="189"
   inkscape:window-maximized="0"
   inkscape:current-layer="Layer_1" />
<style
   type="text/css"
   id="style624">
	.st0{fill:#73797C;}
	.st1{fill:none;}
	.st2{enable-background:new    ;}
	.st3{fill:#FFFFFF;}
	.st4{fill:none;stroke:#FFFFFF;stroke-miterlimit:10;}
</style>
<rect
   class="st0"
   width="80"
   height="80"
   id="rect626"
   style="fill:none" />
<rect
   x="3.5"
   y="7.4"
   class="st1"
   width="72.5"
   height="13.6"
   id="rect628" />
<g
   class="st2"
   id="g640">
	<path
   class="st3"
   d="M27,10.9l-1.6,6.4h-2.1L20.6,8h2.2l1.6,6.8L26.2,8h1.6l1.8,6.8L31.2,8h2.2l-2.7,9.3h-2.1L27,10.9z"
   id="path630" />
	<path
   class="st3"
   d="M37.8,16.6c-0.5,0.5-1.3,0.9-2.1,0.9c-1.1,0-2.4-0.7-2.4-2.2c0-1.6,1.3-2.2,2.4-2.2c0.9,0,1.7,0.3,2.1,0.8V13   c0-0.7-0.6-1.1-1.5-1.1c-0.7,0-1.4,0.3-2,0.8l-0.7-1.2c0.8-0.7,1.9-1.1,3-1.1c1.5,0,3,0.6,3,2.6v4.4h-1.8V16.6z M37.8,14.8   c-0.3-0.4-0.9-0.6-1.4-0.6c-0.7,0-1.3,0.4-1.3,1s0.6,1,1.3,1c0.6,0,1.1-0.2,1.4-0.6V14.8z"
   id="path632" />
	<path
   class="st3"
   d="M41.7,15.6v-3.5h-1.1v-1.6h1.1V8.7h1.8v1.8h1.4v1.6h-1.4v3.1c0,0.4,0.2,0.7,0.6,0.7c0.3,0,0.5-0.1,0.6-0.2   l0.4,1.3c-0.3,0.2-0.7,0.4-1.5,0.4C42.4,17.4,41.7,16.8,41.7,15.6z"
   id="path634" />
	<path
   class="st3"
   d="M49.2,10.3c2,0,3.4,1.5,3.4,3.7v0.4h-5c0.1,0.9,0.8,1.6,1.9,1.6c0.6,0,1.4-0.3,1.8-0.7l0.8,1.1   c-0.7,0.6-1.7,0.9-2.8,0.9c-2.1,0-3.6-1.4-3.6-3.6C45.7,11.9,47.1,10.3,49.2,10.3z M47.5,13.3h3.3c0-0.6-0.5-1.5-1.7-1.5   C48.1,11.8,47.6,12.6,47.5,13.3z"
   id="path636" />
	<path
   class="st3"
   d="M53.8,10.5h1.8v0.9c0.5-0.6,1.3-1.1,2.2-1.1V12c-0.1,0-0.3-0.1-0.5-0.1c-0.6,0-1.4,0.3-1.7,0.8v4.5h-1.8V10.5z   "
   id="path638" />
</g>
<path
   class="st4"
   d="M38.1,34.5c0,0.5,0,0.9,0,1.4c0,0.3-0.1,0.5-0.4,0.6c-1.3,0.6-2.4,1.5-3.3,2.7c-0.1,0.2-0.3,0.3-0.6,0.3  c-3.5,0-6.9,0-10.4,0c-1.1,0-1.7,0.7-1.7,1.7c0,1.4,0,2.9,0,4.3c0,1.2,0.6,1.8,1.8,1.8c3.4,0,6.8,0,10.2,0c0.3,0,0.4,0.1,0.5,0.3  c3,4.7,10,4.7,13,0c0.2-0.3,0.4-0.3,0.7-0.2s0.4,0.4,0.4,0.7c0,0.8,0,1.5,0,2.3c0,0.2,0,0.3-0.2,0.3c-0.6,0.3-0.9,0.8-0.9,1.5  c0,0.8,0,1.5,0,2.3c0,0.9,0.7,1.6,1.6,1.6c2.3,0,4.7,0,7,0c0.9,0,1.6-0.7,1.6-1.6c0-0.8,0-1.7,0-2.5c0-0.7-0.4-1.2-1-1.4  c-0.1,0-0.2-0.1-0.2-0.1c0-1.6,0-3.2,0-4.8c0-3.6-2.7-6.4-6.4-6.4c-0.8,0-1.5,0-2.3,0c-0.1,0-0.3-0.1-0.4-0.2  c-0.9-1.3-2.1-2.3-3.5-2.9c-0.1,0-0.2-0.1-0.2-0.2c0-0.6,0-1.1,0-1.7c0.2,0,0.3,0,0.4,0c1.1,0,2.1,0,3.2,0c1,0,1.7-0.7,1.7-1.7  c0-0.6,0-1.3,0-1.9c0-0.9-0.7-1.6-1.6-1.6c-0.8,0-1.6,0-2.4,0c-0.4,0-0.8,0-1.2,0c0-0.1,0-0.2,0-0.2c-0.2-0.9-0.8-1.4-1.7-1.4  c-0.4,0-0.9,0-1.3,0c-0.3,0-0.6,0-0.9,0c-0.8,0.1-1.2,0.6-1.4,1.6c-0.1,0-0.2,0-0.4,0c-1.1,0-2.1,0-3.2,0c-1,0-1.6,0.7-1.6,1.6  c0,0.6,0,1.3,0,1.9c0,1,0.7,1.7,1.7,1.7s2.1,0,3.1,0C37.8,34.5,37.9,34.5,38.1,34.5z"
   id="path642" />
<path
   class="st4"
   d="M56.5,69c-0.1,1.7-0.8,2.9-2.3,3.6s-2.9,0.5-4.1-0.6c-1.2-1-1.7-2.4-1.2-3.9c0.7-2.4,1.5-4.8,2.2-7.2  c0.2-0.7,0.8-1.1,1.5-1.1s1.3,0.4,1.5,1.1c0.8,2.4,1.5,4.8,2.2,7.2C56.4,68.4,56.5,68.8,56.5,69z"
   id="path644" />
</svg>
