<?xml version="1.0" encoding="UTF-8" standalone="no"?>
<svg
   xmlns:dc="http://purl.org/dc/elements/1.1/"
   xmlns:cc="http://creativecommons.org/ns#"
   xmlns:rdf="http://www.w3.org/1999/02/22-rdf-syntax-ns#"
   xmlns:svg="http://www.w3.org/2000/svg"
   xmlns="http://www.w3.org/2000/svg"
   xmlns:xlink="http://www.w3.org/1999/xlink"
   xmlns:sodipodi="http://sodipodi.sourceforge.net/DTD/sodipodi-0.dtd"
   xmlns:inkscape="http://www.inkscape.org/namespaces/inkscape"
   version="1.1"
   id="Layer_1"
   x="0px"
   y="0px"
   viewBox="0 0 80 80"
   style="enable-background:new 0 0 80 80;"
   xml:space="preserve"
   sodipodi:docname="metric-category-edi.svg"
   inkscape:version="1.0.1 (0767f8302a, 2020-10-17)"><metadata
   id="metadata301"><rdf:RDF><cc:Work
       rdf:about=""><dc:format>image/svg+xml</dc:format><dc:type
         rdf:resource="http://purl.org/dc/dcmitype/StillImage" /></cc:Work></rdf:RDF></metadata><defs
   id="defs299" /><sodipodi:namedview
   pagecolor="#ffffff"
   bordercolor="#666666"
   borderopacity="1"
   objecttolerance="10"
   gridtolerance="10"
   guidetolerance="10"
   inkscape:pageopacity="0"
   inkscape:pageshadow="2"
   inkscape:window-width="2418"
   inkscape:window-height="1749"
   id="namedview297"
   showgrid="false"
   inkscape:zoom="12.6"
   inkscape:cx="40"
   inkscape:cy="40"
   inkscape:window-x="72"
   inkscape:window-y="27"
   inkscape:window-maximized="0"
   inkscape:current-layer="Layer_1" />
<style
   type="text/css"
   id="style241">
	.st0{fill:#73797C;}
	.st1{clip-path:url(#SVGID_2_);}
	.st2{clip-path:url(#SVGID_4_);fill:#FFFFFF;}
	.st3{clip-path:url(#SVGID_4_);fill:#73797C;}
	.st4{clip-path:url(#SVGID_4_);fill:none;stroke:#FFFFFF;stroke-width:0.7792;stroke-linecap:round;stroke-miterlimit:10;}
	.st5{fill:none;}
	.st6{enable-background:new    ;}
	.st7{fill:#FFFFFF;}
</style>
<rect
   class="st0"
   width="80"
   height="80"
   id="rect243"
   style="fill:none" />
<g
   id="Artwork_1065_2_"
   style="fill:none">
	<g
   id="g281"
   style="fill:none">
		<defs
   id="defs246">
			<rect
   id="SVGID_1_"
   x="10.5"
   y="26.5"
   width="58"
   height="45" />
		</defs>
		<clipPath
   id="SVGID_2_">
			<use
   xlink:href="#SVGID_1_"
   style="overflow:visible"
   id="use248"
   x="0"
   y="0"
   width="100%"
   height="100%" />
		</clipPath>
		<g
   class="st1"
   clip-path="url(#SVGID_2_)"
   id="g279"
   style="fill:none">
			<defs
   id="defs252">
				<rect
   id="SVGID_3_"
   x="10.5"
   y="26.5"
   width="58"
   height="45" />
			</defs>
			<clipPath
   id="SVGID_4_">
				<use
   xlink:href="#SVGID_3_"
   style="overflow:visible"
   id="use254"
   x="0"
   y="0"
   width="100%"
   height="100%" />
			</clipPath>
			<path
   class="st2"
   d="m 39.6,36.3 c 2.1,0 3.7,-1.7 3.7,-3.7 0,-2.1 -1.7,-3.7 -3.7,-3.7 -2.1,0 -3.7,1.7 -3.7,3.7 -0.1,2.1 1.6,3.7 3.7,3.7 m 0,-6.6 c 1.6,0 2.8,1.3 2.8,2.8 0,1.6 -1.3,2.8 -2.8,2.8 C 38,35.3 36.8,34 36.8,32.5 36.7,31 38,29.7 39.6,29.7"
   clip-path="url(#SVGID_4_)"
   id="path257"
   style="fill:none" />
			<path
   class="st2"
   d="m 21.2,36.2 c 2.1,0 3.7,-1.7 3.7,-3.7 0,-2.1 -1.7,-3.7 -3.7,-3.7 -2.1,0 -3.7,1.7 -3.7,3.7 -0.1,2 1.6,3.7 3.7,3.7 m 0,-6.6 c 1.6,0 2.8,1.3 2.8,2.8 0,1.6 -1.3,2.8 -2.8,2.8 -1.6,0 -2.8,-1.3 -2.8,-2.8 -0.1,-1.5 1.2,-2.8 2.8,-2.8"
   clip-path="url(#SVGID_4_)"
   id="path259"
   style="fill:none" />
			<path
   class="st2"
   d="m 53.1,51.6 c 0,0.6 0,0.9 0,1 l -0.2,9.8 -0.1,6.6 c 0,0.7 0.2,1.3 0.7,1.7 0.5,0.5 1.1,0.7 1.7,0.8 v 0 c 1.3,0 2.4,-1.1 2.5,-2.4 l 0.1,-6.8 0.1,-5.7 c 0.1,0 0.1,0 0.2,0 l 0.2,5.7 0.2,6.8 c 0,1.3 1.1,2.4 2.5,2.4 h 0.1 c 0.7,0 1.3,-0.3 1.7,-0.8 0.4,-0.5 0.7,-1.1 0.7,-1.8 L 63.3,62.2 63,52.3 c 0,-0.3 0,-1.6 0,-3 l 1,4 c 0.3,1 1.2,1.7 2.2,1.7 0.3,0 0.6,-0.1 0.9,-0.2 1,-0.4 1.6,-1.8 1.3,-2.9 L 65.3,41.1 c -0.6,-2.3 -2.6,-4.1 -4.8,-4.2 0,0 -0.1,0 -0.1,0 h -3.7 c -1,0 -1.9,-0.3 -2.5,-1 l -0.8,-0.8 -1.7,-6.8 c -0.3,-1.1 -1.3,-1.9 -2.4,-1.8 v 0 c -0.2,0 -0.3,0 -0.4,0.1 0,0 -0.1,0 -0.1,0 -1.2,-0.3 -2.5,0.5 -2.8,1.8 l -1.8,6.8 -1.5,1.8 c -0.6,0.3 -5,0.4 -5.7,0.1 l -1.8,-1.9 -1.7,-6.7 c -0.3,-1.3 -1.6,-2.1 -2.8,-1.8 -0.1,0 -0.1,0 -0.2,0 -0.1,0 -0.2,-0.1 -0.3,-0.1 v 0 c -1.2,-0.3 -2.5,0.5 -2.8,1.8 l -1.7,6.7 -0.8,0.8 c -0.6,0.7 -1.5,1 -2.6,1 h -3.7 c 0,0 -0.1,0 -0.1,0 -2.2,0.1 -4.2,1.9 -4.8,4.2 L 10.5,52 c -0.4,1.2 0.3,2.6 1.5,3 0.2,0.1 0.5,0.1 0.7,0.1 1,0 2,-0.7 2.3,-1.7 l 1,-4 c 0,1.4 0,2.7 0,3 L 15.5,69 c 0,1.4 1,2.5 2.4,2.5 H 18 c 1.3,0 2.4,-1 2.5,-2.4 l 0.4,-12.5 c 0.1,0 0.1,0 0.2,0 l 0.2,12.5 c 0,1.3 1.1,2.4 2.5,2.4 v 0 c 0.7,0 1.3,-0.3 1.7,-0.8 0.5,-0.5 0.7,-1.1 0.7,-1.7 0,-0.2 -0.3,-17 -0.3,-17.3 0,-0.1 0,-8.4 0,-9.9 0,0 0,-0.1 0,-0.1 0.7,-0.8 3.6,-3.8 3.6,-3.8 0.1,-0.1 0.1,-0.1 0.2,-0.2 v 0 c 0,0 0.1,-0.1 0.1,-0.1 v -0.1 c 0,0 0,-0.1 0.1,-0.1 0,0 0,0 0,-0.1 0,0 0,-0.1 0.1,-0.1 0,0 0,0 0,-0.1 0,0 0,-0.1 0,-0.1 v 0 c 0,0 0,-0.1 0,-0.1 l 0.3,-1.3 0.3,1.4 c 0,0 0,0.1 0,0.1 v 0 c 0,0 0,0.1 0,0.1 0,0 0,0 0,0.1 0,0 0,0.1 0,0.1 0,0 0,0 0,0.1 0,0 0,0.1 0.1,0.1 v 0.1 c 0,0 0.1,0.1 0.1,0.1 0,0 0,0 0,0 0,0.1 0.1,0.1 0.1,0.2 0,0 0,0 0,0 0,0 2.6,2.7 3.4,3.7 0.1,0.1 0.2,0.3 0.2,0.4 0,1.2 0,4.9 0,7.5 0,1.5 0,2.7 0,2.8 l -0.3,16 c 0,1.2 0.6,2.3 1.6,2.9 0.4,0.2 0.6,0.3 0.8,0.3 1.3,0 2.4,-1.1 2.5,-2.4 l 0.2,-12.5 c 0.1,0 0.1,0 0.2,0 l 0.4,12.5 c 0,1.3 1.1,2.4 2.5,2.4 h 0.1 c 0.7,0 1.3,-0.3 1.7,-0.8 0.4,-0.5 0.7,-1.1 0.7,-1.8 L 44.4,52.4 c 0,-0.3 0.1,-1.7 0.2,-10.7 0,-0.1 0.1,-0.3 0.1,-0.4 l 3,-3.6 c 0.1,-0.1 0.2,-0.2 0.2,-0.4 v -0.1 c 0,0 0,-0.1 0.1,-0.1 0,0 0,-0.1 0,-0.1 0,0 0,-0.1 0,-0.1 0,0 0,-0.1 0,-0.1 0,0 0,0 0,0 l 0.2,-0.9 0.2,0.9 c 0,0 0,0.1 0,0.1 v 0 c 0,0 0,0.1 0,0.1 0,0 0,0 0,0.1 0,0 0,0.1 0,0.1 v 0.1 c 0,0 0,0.1 0.1,0.1 v 0.1 c 0,0 0.1,0.1 0.1,0.1 v 0 c 0,0.1 0.1,0.1 0.2,0.2 l 3.1,3.3 c 0.3,0.3 0.4,0.7 0.4,1.1 0.7,2.8 0.8,7.4 0.8,9.4"
   clip-path="url(#SVGID_4_)"
   id="path261"
   style="fill:none" />
			<path
   class="st3"
   d="m 62,50.3 c 0,1.1 0,1.9 0,2 0,0 0,0.1 0,0.1 l 0.3,9.9 0.2,6.7 c 0,0.4 -0.1,0.8 -0.4,1.1 -0.3,0.3 -0.7,0.5 -1.1,0.5 v 0 c -0.8,0 -1.5,-0.7 -1.5,-1.5 L 59.3,62.5 59,56.1 c 0,-0.1 -0.1,-0.2 -0.2,-0.3 -0.1,-0.1 -0.2,-0.1 -0.3,-0.1 -0.3,0 -0.6,0 -0.9,0 -0.1,0 -0.3,0 -0.3,0.1 C 57.1,55.9 57,56 57,56.1 l -0.1,6.2 -0.1,6.7 c 0,0.8 -0.7,1.5 -1.6,1.5 v 0 c -0.4,0 -0.8,-0.2 -1.1,-0.5 -0.3,-0.3 -0.4,-0.7 -0.4,-1.1 l 0.1,-6.7 0.2,-9.6 c 0,0 0,-1 0,-2.2"
   clip-path="url(#SVGID_4_)"
   id="path263"
   style="fill:none" />
			<path
   class="st3"
   d="m 54,50.4 c 0,-2.8 -0.1,-7.4 -0.1,-8.1 0,-0.6 -0.2,-1.2 -0.7,-1.7 l -3.1,-3.3 c 0,0 -0.1,-0.1 -0.1,-0.1 v 0 c 0,0 0,-0.1 -0.1,-0.1 v 0 c 0,0 0,0 0,-0.1 v 0 c 0,0 0,0 0,-0.1 0,0 0,0 0,0 v -0.1 c 0,0 0,-0.1 0,-0.1 L 48,29.3 c -0.1,-0.4 0,-0.9 0.2,-1.2 0.3,-0.4 0.7,-0.6 1.1,-0.6 0.7,0 1.3,0.5 1.4,1.1 l 1.8,6.9 c 0,0.1 0.1,0.1 0.1,0.2 l 0.8,0.9 c 0.8,0.9 2,1.3 3.2,1.3 h 3.7 c 0,0 0.1,0 0.1,0 1.8,0.1 3.5,1.6 3.9,3.5 l 3.2,10.9 c 0.2,0.7 -0.2,1.5 -0.8,1.8 -0.2,0.1 -0.4,0.1 -0.6,0.1 -0.6,0 -1.2,-0.4 -1.4,-1 l -1.9,-7.3 c -0.1,-0.2 -0.3,-0.4 -0.5,-0.3 -0.2,0 -0.4,0.2 -0.4,0.4 0,1.4 0,3.1 0,4.4"
   clip-path="url(#SVGID_4_)"
   id="path265"
   style="fill:none" />
			<path
   class="st3"
   d="m 32.5,28.6 1.7,6.9 c 0,0.1 0.1,0.1 0.1,0.2 l 1.9,2 c 0.4,0.4 2.2,0.5 3.7,0.4 2.9,-0.1 3.2,-0.4 3.3,-0.6 l 1.6,-1.9 c 0,-0.1 0.1,-0.1 0.1,-0.2 l 1.8,-6.9 c 0.1,-0.3 0.3,-0.6 0.5,-0.8 -0.3,0.5 -0.4,1.1 -0.2,1.7 l 1.2,4.7 -0.7,2.4 c 0,0 0,0 0,0 0,0 0,0 0,0.1 0,0 0,0 0,0.1 v 0.1 c 0,0 0,0 0,0.1 0,0 0,0 0,0 0,0.1 -0.1,0.2 -0.2,0.2 l -3,3.6 c -0.2,0.3 -0.4,0.6 -0.4,1 -0.1,6.3 -0.2,10.4 -0.2,10.6 0,0 0,0.1 0,0.1 L 44.3,69 c 0,0.9 -0.6,1.6 -1.5,1.6 h -0.1 c -0.8,0 -1.5,-0.7 -1.5,-1.5 L 40.8,56.2 c 0,-0.1 -0.1,-0.2 -0.2,-0.3 -0.1,-0.1 -0.2,-0.1 -0.3,-0.1 -0.3,0 -0.6,0 -0.9,0 -0.1,0 -0.3,0 -0.3,0.1 -0.1,0.1 -0.2,0.2 -0.2,0.3 l -0.3,12.9 c 0,0.8 -0.7,1.5 -1.6,1.5 -0.1,0 -0.1,0 -0.4,-0.1 -0.7,-0.4 -1.2,-1.3 -1.2,-2.2 l 0.3,-16 c 0,0 0,-0.9 0,-2.8 0,-2.6 0,-6.3 0,-7.5 0,-0.4 -0.1,-0.8 -0.4,-1 -0.8,-1 -3.3,-3.7 -3.3,-3.7 0,0 -0.1,-0.1 -0.1,-0.1 v 0 c 0,0 0,-0.1 -0.1,-0.1 v 0 c 0,0 0,0 0,-0.1 v 0 c 0,0 0,0 0,-0.1 0,0 0,0 0,0 v -0.1 c 0,0 0,0 0,0 l -0.8,-3 1.1,-4.2 c 0.2,-0.6 0.1,-1.3 -0.3,-1.8 0,0 0,-0.1 -0.1,-0.1 0.4,0 0.7,0.4 0.8,0.9"
   clip-path="url(#SVGID_4_)"
   id="path267"
   style="fill:none" />
			<path
   class="st3"
   d="m 12.8,54.1 c -0.1,0 -0.3,0 -0.4,-0.1 -0.7,-0.2 -1.1,-1.1 -0.9,-1.9 l 3.2,-10.9 c 0.5,-2 2.1,-3.4 3.9,-3.5 0,0 0.1,0 0.1,0 h 3.7 c 1.3,0 2.4,-0.4 3.2,-1.3 l 0.8,-0.9 c 0.1,-0.1 0.1,-0.1 0.1,-0.2 l 1.7,-6.9 c 0.2,-0.8 1,-1.3 1.7,-1.1 0.4,0.1 0.7,0.3 0.9,0.7 0.2,0.3 0.3,0.7 0.2,1.1 l -1.9,7.4 c 0,0 0,0 0,0 v 0.1 0.1 c 0,0 0,0 0,0.1 v 0 c 0,0 0,0.1 0,0.1 v 0 c 0,0 0,0.1 -0.1,0.1 0,0 0,0 0,0 0,0 -0.1,0.1 -0.1,0.1 0,0 -2.8,3 -3.6,3.8 -0.2,0.2 -0.3,0.5 -0.3,0.7 0,1.5 0,9.8 0,9.9 0,0.2 0.3,16.6 0.3,17.3 0,0.4 -0.1,0.8 -0.4,1.1 -0.3,0.3 -0.7,0.5 -1.1,0.5 0,0 0,0 0,0 -0.8,0 -1.5,-0.7 -1.6,-1.5 L 22,56.1 c 0,-0.1 -0.1,-0.2 -0.2,-0.3 -0.1,-0.1 -0.2,-0.1 -0.3,-0.1 0,0 0,0 -0.1,0 -0.3,0 -0.6,0 -0.9,0 -0.1,0 -0.3,0 -0.3,0.1 C 20.1,55.9 20,56 20,56.1 L 19.6,69 c 0,0.8 -0.7,1.5 -1.5,1.5 H 18 c -0.9,0 -1.5,-0.7 -1.5,-1.6 L 17,52.3 c 0,0 0,0 0,-0.1 0,-0.3 0,-4 0,-6.4 0,-0.2 -0.2,-0.4 -0.4,-0.4 -0.2,0 -0.4,0.1 -0.5,0.3 L 14.2,53 c -0.2,0.6 -0.7,1.1 -1.4,1.1"
   clip-path="url(#SVGID_4_)"
   id="path269"
   style="fill:none" />
			<path
   class="st2"
   d="m 57.8,36.2 c 0.2,0 0.4,0 0.6,-0.1 1.6,-0.3 2.8,-1.5 3.1,-3.1 0.2,-1.2 -0.2,-2.4 -1,-3.3 -0.9,-0.9 -2.1,-1.2 -3.3,-1 -1.6,0.3 -2.8,1.5 -3.1,3.1 -0.2,1.2 0.2,2.4 1,3.3 0.8,0.7 1.7,1.1 2.7,1.1 M 55,31.9 c 0.2,-1.2 1.1,-2.1 2.3,-2.3 0.2,0 0.3,0 0.5,0 0.8,0 1.5,0.3 2,0.8 0.7,0.7 0.9,1.6 0.8,2.5 -0.2,1.2 -1.1,2.1 -2.3,2.3 -0.9,0.2 -1.8,-0.1 -2.5,-0.8 -0.6,-0.6 -0.9,-1.5 -0.8,-2.5"
   clip-path="url(#SVGID_4_)"
   id="path271"
   style="fill:none" />
			<polygon
   class="st3"
   points="59.3,50.2 62.3,50.2 66.5,62.3 49.1,62.3 53.5,50.2 55.2,50.2 "
   clip-path="url(#SVGID_4_)"
   id="polygon273"
   style="fill:none" />
			<polyline
   class="st4"
   points="62.4,50.1 66.6,62.3 62.6,62.3    "
   clip-path="url(#SVGID_4_)"
   id="polyline275"
   style="fill:none" />
			<polyline
   class="st4"
   points="53.5,62.4 49.3,62.4 53.6,50.2    "
   clip-path="url(#SVGID_4_)"
   id="polyline277"
   style="fill:none" />
		</g>
	</g>
</g>
<rect
   x="3.5"
   y="7.4"
   class="st5"
   width="72.5"
   height="13.6"
   id="rect284" />
<rect
   x="5.5"
   y="6.4"
   class="st5"
   width="68.2"
   height="15.9"
   id="rect286" />
<g
   class="st6"
   id="g294">
	<path
   class="st7"
   d="M28.8,6.4h7.1v1.8h-4.9v2.2h4.8v1.8h-4.8v2.3h4.9v1.8h-7.1V6.4z"
   id="path288" />
	<path
   class="st7"
   d="M37.5,6.4h3.9c3.1,0,5.3,2,5.3,5c0,3-2.2,5-5.3,5h-3.9V6.4z M41.4,14.5c2,0,3.1-1.4,3.1-3.1   c0-1.8-1.1-3.1-3.1-3.1h-1.8v6.3H41.4z"
   id="path290" />
	<path
   class="st7"
   d="M48.3,6.4h2.1v10h-2.1V6.4z"
   id="path292" />
</g>
</svg>
