<?xml version="1.0" encoding="UTF-8" standalone="no"?>
<svg
   xmlns:dc="http://purl.org/dc/elements/1.1/"
   xmlns:cc="http://creativecommons.org/ns#"
   xmlns:rdf="http://www.w3.org/1999/02/22-rdf-syntax-ns#"
   xmlns:svg="http://www.w3.org/2000/svg"
   xmlns="http://www.w3.org/2000/svg"
   xmlns:sodipodi="http://sodipodi.sourceforge.net/DTD/sodipodi-0.dtd"
   xmlns:inkscape="http://www.inkscape.org/namespaces/inkscape"
   version="1.1"
   id="Layer_1"
   x="0px"
   y="0px"
   viewBox="0 0 80 80"
   style="enable-background:new 0 0 80 80;"
   xml:space="preserve"
   sodipodi:docname="metric-category-employees.svg"
   inkscape:version="1.0.1 (0767f8302a, 2020-10-17)"><metadata
   id="metadata362"><rdf:RDF><cc:Work
       rdf:about=""><dc:format>image/svg+xml</dc:format><dc:type
         rdf:resource="http://purl.org/dc/dcmitype/StillImage" /></cc:Work></rdf:RDF></metadata><defs
   id="defs360" /><sodipodi:namedview
   pagecolor="#ffffff"
   bordercolor="#666666"
   borderopacity="1"
   objecttolerance="10"
   gridtolerance="10"
   guidetolerance="10"
   inkscape:pageopacity="0"
   inkscape:pageshadow="2"
   inkscape:window-width="1755"
   inkscape:window-height="1329"
   id="namedview358"
   showgrid="false"
   inkscape:zoom="12.6"
   inkscape:cx="40"
   inkscape:cy="40"
   inkscape:window-x="72"
   inkscape:window-y="27"
   inkscape:window-maximized="0"
   inkscape:current-layer="Layer_1" />
<style
   type="text/css"
   id="style303">
	.st0{fill:#73797C;}
	.st1{enable-background:new    ;}
	.st2{fill:#FFFFFF;}
</style>
<rect
   class="st0"
   width="80"
   height="80"
   id="rect305"
   style="fill:none" />
<g
   class="st1"
   id="g325">
	<path
   class="st2"
   d="M6.6,8.1h6.6v1.7H8.6v2h4.5v1.7H8.6v2.2h4.6v1.7H6.6V8.1z"
   id="path307" />
	<path
   class="st2"
   d="M23.2,13.2c0-0.6-0.3-1.1-1-1.1c-0.6,0-1.1,0.4-1.4,0.8v4.6H19v-4.3c0-0.6-0.3-1.1-1-1.1   c-0.6,0-1.1,0.4-1.4,0.8v4.6h-1.8v-6.8h1.8v0.9c0.3-0.4,1.2-1.1,2.2-1.1s1.6,0.5,1.9,1.2c0.4-0.6,1.3-1.2,2.3-1.2c1.2,0,2,0.7,2,2   v4.9h-1.8V13.2z"
   id="path309" />
	<path
   class="st2"
   d="M26.7,20v-9.3h1.8v0.9c0.5-0.7,1.3-1,2.1-1c1.7,0,3,1.3,3,3.5c0,2.3-1.3,3.6-3,3.6c-0.8,0-1.5-0.3-2.1-1V20   H26.7z M30,12.1c-0.6,0-1.2,0.3-1.5,0.8v2.4c0.3,0.4,1,0.8,1.5,0.8c1,0,1.7-0.8,1.7-2S31,12.1,30,12.1z"
   id="path311" />
	<path
   class="st2"
   d="M34.9,8.1h1.8v9.3h-1.8V8.1z"
   id="path313" />
	<path
   class="st2"
   d="M38,14.1c0-1.9,1.3-3.5,3.6-3.5c2.2,0,3.6,1.6,3.6,3.5s-1.3,3.6-3.6,3.6C39.3,17.6,38,16,38,14.1z M43.3,14.1   c0-1.1-0.6-2-1.7-2c-1.1,0-1.7,0.9-1.7,2s0.6,2,1.7,2C42.7,16,43.3,15.1,43.3,14.1z"
   id="path315" />
	<path
   class="st2"
   d="M47.1,18.6c0.5,0,0.8-0.1,0.9-0.5l0.3-0.6l-2.7-6.9h1.9l1.8,4.7l1.8-4.7H53l-3.2,7.9c-0.5,1.3-1.4,1.6-2.6,1.6   c-0.2,0-0.7,0-0.9-0.1l0.3-1.6C46.6,18.6,46.9,18.6,47.1,18.6z"
   id="path317" />
	<path
   class="st2"
   d="M56.7,10.5c2,0,3.4,1.5,3.4,3.7v0.4h-5c0.1,0.9,0.8,1.6,1.9,1.6c0.6,0,1.4-0.3,1.8-0.7l0.8,1.1   c-0.7,0.6-1.7,0.9-2.8,0.9c-2.1,0-3.6-1.4-3.6-3.6C53.2,12.1,54.7,10.5,56.7,10.5z M55,13.4h3.3c0-0.6-0.5-1.5-1.7-1.5   C55.6,11.9,55.1,12.8,55,13.4z"
   id="path319" />
	<path
   class="st2"
   d="M64.5,10.5c2,0,3.4,1.5,3.4,3.7v0.4h-5c0.1,0.9,0.8,1.6,1.9,1.6c0.6,0,1.4-0.3,1.8-0.7l0.8,1.1   c-0.7,0.6-1.7,0.9-2.8,0.9c-2.1,0-3.6-1.4-3.6-3.6C61,12.1,62.4,10.5,64.5,10.5z M62.8,13.4h3.3c0-0.6-0.5-1.5-1.7-1.5   C63.3,11.9,62.9,12.8,62.8,13.4z"
   id="path321" />
	<path
   class="st2"
   d="M69.3,15.3c0.5,0.5,1.5,0.9,2.3,0.9s1.1-0.3,1.1-0.7c0-0.5-0.6-0.6-1.4-0.8c-1.2-0.2-2.7-0.5-2.7-2.1   c0-1.1,1-2.1,2.8-2.1c1.1,0,2.1,0.4,2.7,0.9l-0.7,1.2c-0.4-0.4-1.2-0.8-2-0.8c-0.6,0-1.1,0.2-1.1,0.6c0,0.4,0.5,0.6,1.3,0.7   c1.2,0.2,2.7,0.5,2.7,2.2c0,1.2-1.1,2.2-2.9,2.2c-1.2,0-2.3-0.4-3-1.1L69.3,15.3z"
   id="path323" />
</g>
<g
   id="g355">
	<path
   class="st2"
   d="M29.1,36.8c2.6,0,4.7-2.1,4.7-4.7s-2.1-4.7-4.7-4.7s-4.7,2.1-4.7,4.7C24.4,34.7,26.5,36.8,29.1,36.8z    M29.1,28.7c1.9,0,3.4,1.5,3.4,3.4s-1.5,3.4-3.4,3.4s-3.4-1.5-3.4-3.4S27.2,28.7,29.1,28.7z"
   id="path327" />
	<path
   class="st2"
   d="M50.9,36.8c2.6,0,4.7-2.1,4.7-4.7s-2.1-4.7-4.7-4.7c-2.6,0-4.7,2.1-4.7,4.7S48.3,36.8,50.9,36.8z M50.9,28.7   c1.9,0,3.4,1.5,3.4,3.4s-1.5,3.4-3.4,3.4s-3.4-1.5-3.4-3.4S49,28.7,50.9,28.7z"
   id="path329" />
	<path
   class="st2"
   d="M47.4,37.1h0.4c-0.5-0.3-0.9-0.7-1.3-1.2c-0.4,0.1-0.8,0.2-1.2,0.4c0.2,0.4,0.4,0.7,0.5,1.1   C46.2,37.2,46.8,37.1,47.4,37.1z"
   id="path331" />
	<path
   class="st2"
   d="M40,43.8c2.6,0,4.7-2.1,4.7-4.7c0-2.6-2.1-4.7-4.7-4.7c-2.6,0-4.7,2.1-4.7,4.7S37.4,43.8,40,43.8z M40,35.7   c1.9,0,3.4,1.5,3.4,3.4s-1.5,3.4-3.4,3.4s-3.4-1.5-3.4-3.4S38.1,35.7,40,35.7z"
   id="path333" />
	<path
   class="st2"
   d="M29.1,46.5c-2.6,0-4.7,2.1-4.7,4.7c0,2.6,2.1,4.7,4.7,4.7s4.7-2.1,4.7-4.7C33.8,48.6,31.7,46.5,29.1,46.5z    M29.1,54.6c-1.9,0-3.4-1.5-3.4-3.4s1.5-3.4,3.4-3.4s3.4,1.5,3.4,3.4S31,54.6,29.1,54.6z"
   id="path335" />
	<path
   class="st2"
   d="M50.9,55.9c2.6,0,4.7-2.1,4.7-4.7c0-2.6-2.1-4.7-4.7-4.7c-2.6,0-4.7,2.1-4.7,4.7   C46.2,53.8,48.3,55.9,50.9,55.9z M50.9,47.7c1.9,0,3.4,1.5,3.4,3.4s-1.5,3.4-3.4,3.4s-3.4-1.5-3.4-3.4S49,47.7,50.9,47.7z"
   id="path337" />
	<path
   class="st2"
   d="M32.3,37.1h0.4c0.6,0,1.2,0.1,1.7,0.4c0.1-0.4,0.3-0.8,0.5-1.1C34.4,36.2,34,36,33.6,36   C33.2,36.4,32.8,36.8,32.3,37.1z"
   id="path339" />
	<path
   class="st2"
   d="M33.6,55c-0.4,0.4-0.8,0.8-1.3,1.2h0.4c2.3,0,4.2,1.9,4.2,4.3V66c0,0.1-0.1,0.1-0.1,0.1H21.4   c-0.1,0-0.1-0.1-0.1-0.1v-5.6c0-2.4,1.9-4.3,4.2-4.3h0.4c-0.5-0.3-0.9-0.7-1.3-1.2C22,55.5,20,57.8,20,60.5V66   c0,0.8,0.6,1.4,1.4,1.4h15.4c0.8,0,1.4-0.6,1.4-1.4v-5.6C38.1,57.8,36.2,55.5,33.6,55z"
   id="path341" />
	<path
   class="st2"
   d="M37.1,44.3c-0.5-0.3-1-0.7-1.5-1.2c-1.7,0.3-3.1,1.3-3.9,2.7c0.4,0.2,0.7,0.4,1.1,0.7c0.7-1.3,2.1-2.2,3.7-2.2   H37.1z"
   id="path343" />
	<path
   class="st2"
   d="M21.4,48.4h2.5c0.2-0.5,0.6-0.9,0.9-1.2h-3.4c-0.1,0-0.1-0.1-0.1-0.1v-5.6c0-2.4,1.9-4.3,4.2-4.3h0.4   c-0.5-0.3-0.9-0.7-1.3-1.2C22,36.4,20,38.7,20,41.4V47C20,47.7,20.6,48.4,21.4,48.4z"
   id="path345" />
	<path
   class="st2"
   d="M47.3,46.5c0.3-0.3,0.7-0.5,1.1-0.7c-0.8-1.4-2.3-2.5-3.9-2.7c-0.4,0.5-0.9,0.9-1.5,1.2h0.6   C45.2,44.3,46.5,45.2,47.3,46.5z"
   id="path347" />
	<path
   class="st2"
   d="M55.5,36c-0.4,0.4-0.8,0.8-1.3,1.2h0.4c2.3,0,4.2,1.9,4.2,4.3V47c0,0.1-0.1,0.1-0.1,0.1h-3.4   c0.4,0.4,0.7,0.8,0.9,1.2h2.5c0.8,0,1.4-0.6,1.4-1.4v-5.6C60,38.7,58,36.4,55.5,36z"
   id="path349" />
	<path
   class="st2"
   d="M55.5,55c-0.4,0.4-0.8,0.8-1.3,1.2h0.4c2.3,0,4.2,1.9,4.2,4.3V66c0,0.1-0.1,0.1-0.1,0.1H43.3   c-0.1,0-0.1-0.1-0.1-0.1v-5.6c0-2.4,1.9-4.3,4.2-4.3h0.4c-0.5-0.3-0.9-0.7-1.3-1.2c-2.6,0.5-4.5,2.7-4.5,5.5V66   c0,0.8,0.6,1.4,1.4,1.4h15.4c0.8,0,1.4-0.6,1.4-1.4v-5.6C60,57.8,58,55.5,55.5,55z"
   id="path351" />
	<path
   class="st2"
   d="M42.7,55.6c0.5-0.5,1.1-0.9,1.8-1.2h-9.1c0.7,0.3,1.3,0.7,1.8,1.2H42.7z"
   id="path353" />
</g>
</svg>
