<?xml version="1.0" encoding="utf-8"?>
<!-- Generator: Adobe Illustrator 25.1.0, SVG Export Plug-In . SVG Version: 6.00 Build 0)  -->
<svg version="1.1" id="Layer_1" xmlns="http://www.w3.org/2000/svg" xmlns:xlink="http://www.w3.org/1999/xlink" x="0px" y="0px"
	 viewBox="0 0 80 80" style="enable-background:new 0 0 80 80;" xml:space="preserve">
<style type="text/css">
	.st0{fill:#73797C;}
	.st1{fill:none;}
	.st2{enable-background:new    ;}
	.st3{fill:#FFFFFF;}
	.st4{fill:none;stroke:#FFFFFF;stroke-width:1.6216;stroke-miterlimit:10;}
	.st5{fill:none;stroke:#FFFFFF;stroke-width:1.6216;stroke-linejoin:round;stroke-miterlimit:10;}
</style>
<rect class="st0" width="80" height="80"/>
<rect x="3.5" y="7.4" class="st1" width="72.5" height="13.6"/>
<rect x="0.5" y="5.4" class="st1" width="79" height="27.7"/>
<g class="st2">
	<path class="st3" d="M21.5,11c0.6,0.6,1.4,1.1,2.5,1.1c0.9,0,1.4-0.4,1.4-0.9c0-0.6-0.7-0.8-1.6-1c-1.3-0.3-3-0.7-3-2.4
		c0-1.3,1.2-2.4,3-2.4c1.3,0,2.3,0.4,3.1,1.1l-0.9,1.2c-0.6-0.6-1.5-0.9-2.3-0.9c-0.8,0-1.2,0.3-1.2,0.8c0,0.5,0.7,0.7,1.6,0.9
		c1.3,0.3,3,0.7,3,2.5c0,1.5-1,2.6-3.2,2.6c-1.5,0-2.6-0.5-3.4-1.3L21.5,11z"/>
	<path class="st3" d="M30.5,11.1l-0.7,0.7v1.5h-1.5v-8h1.5v4.8L32,7.6h1.9l-2.3,2.6l2.4,3.2h-1.9L30.5,11.1z"/>
	<path class="st3" d="M34.6,5.8c0-0.5,0.4-0.9,0.9-0.9c0.5,0,0.9,0.4,0.9,0.9S36,6.7,35.5,6.7C35,6.7,34.6,6.3,34.6,5.8z M34.7,7.6
		h1.5v5.8h-1.5V7.6z"/>
	<path class="st3" d="M37.8,5.4h1.5v8h-1.5V5.4z"/>
	<path class="st3" d="M40.8,5.4h1.5v8h-1.5V5.4z"/>
	<path class="st3" d="M44,11.6c0.4,0.4,1.3,0.8,2,0.8c0.7,0,1-0.2,1-0.6c0-0.4-0.5-0.6-1.2-0.7c-1-0.2-2.3-0.4-2.3-1.8
		c0-1,0.9-1.8,2.4-1.8c1,0,1.8,0.3,2.3,0.8l-0.6,1c-0.3-0.4-1-0.7-1.7-0.7c-0.6,0-0.9,0.2-0.9,0.5c0,0.4,0.5,0.5,1.1,0.6
		c1,0.2,2.3,0.5,2.3,1.9c0,1.1-0.9,1.9-2.5,1.9c-1,0-2-0.3-2.6-0.9L44,11.6z"/>
	<path class="st3" d="M59.5,13.4h-1.9c-0.2-0.2-0.4-0.4-0.6-0.6c-0.6,0.5-1.3,0.7-2.2,0.7c-1.5,0-2.7-0.8-2.7-2.3
		c0-1.2,0.8-1.8,1.7-2.3c-0.3-0.6-0.5-1.2-0.5-1.7c0-1.1,0.9-1.9,2.3-1.9c1.1,0,2.1,0.6,2.1,1.7c0,1.2-1,1.7-2,2.2
		c0.2,0.3,0.5,0.6,0.7,0.9c0.2,0.3,0.5,0.6,0.7,0.8c0.3-0.5,0.6-1.1,0.7-1.5l1.2,0.6c-0.3,0.6-0.7,1.3-1.1,1.9
		C58.5,12.3,59,12.8,59.5,13.4z M56.2,11.9c-0.4-0.4-0.7-0.8-0.9-1c-0.3-0.3-0.5-0.7-0.8-1.1c-0.4,0.3-0.7,0.7-0.7,1.2
		c0,0.8,0.6,1.3,1.2,1.3C55.4,12.3,55.8,12.2,56.2,11.9z M55.2,8.3C55.9,8,56.4,7.6,56.4,7c0-0.4-0.3-0.7-0.7-0.7
		c-0.5,0-0.8,0.4-0.8,0.9C54.9,7.5,55,7.9,55.2,8.3z"/>
</g>
<g class="st2">
	<path class="st3" d="M10.3,19.8h5.7v1.5h-4V23h3.9v1.5H12v1.9h4v1.5h-5.7V19.8z"/>
	<path class="st3" d="M24.4,24.1c0-0.5-0.2-0.9-0.9-0.9c-0.5,0-1,0.4-1.2,0.7v3.9h-1.5v-3.7c0-0.5-0.2-0.9-0.9-0.9
		c-0.5,0-1,0.4-1.2,0.7v3.9h-1.5V22h1.5v0.8c0.2-0.3,1-0.9,1.9-0.9c0.9,0,1.4,0.4,1.6,1.1c0.3-0.5,1.1-1.1,2-1.1
		c1.1,0,1.7,0.6,1.7,1.8v4.2h-1.5V24.1z"/>
	<path class="st3" d="M27.4,19.8H29v8h-1.5V19.8z"/>
	<path class="st3" d="M30.1,24.9c0-1.6,1.2-3,3.1-3c1.9,0,3.1,1.4,3.1,3c0,1.7-1.2,3-3.1,3C31.3,27.9,30.1,26.5,30.1,24.9z
		 M34.6,24.9c0-0.9-0.5-1.7-1.5-1.7c-0.9,0-1.5,0.8-1.5,1.7c0,0.9,0.5,1.7,1.5,1.7C34.1,26.6,34.6,25.8,34.6,24.9z"/>
	<path class="st3" d="M37.9,28.8c0.4,0,0.7-0.1,0.8-0.4l0.2-0.5L36.5,22h1.6l1.5,4l1.5-4h1.6l-2.7,6.7c-0.4,1.1-1.2,1.4-2.2,1.4
		c-0.2,0-0.6,0-0.8-0.1l0.2-1.4C37.5,28.7,37.7,28.8,37.9,28.8z"/>
	<path class="st3" d="M50.7,24.1c0-0.5-0.2-0.9-0.9-0.9c-0.5,0-1,0.4-1.2,0.7v3.9h-1.5v-3.7c0-0.5-0.2-0.9-0.9-0.9
		c-0.5,0-1,0.4-1.2,0.7v3.9h-1.5V22H45v0.8c0.2-0.3,1-0.9,1.9-0.9c0.9,0,1.4,0.4,1.6,1.1c0.3-0.5,1.1-1.1,2-1.1
		c1.1,0,1.7,0.6,1.7,1.8v4.2h-1.5V24.1z"/>
	<path class="st3" d="M56.4,21.8c1.7,0,2.9,1.3,2.9,3.2v0.3H55c0.1,0.7,0.7,1.3,1.7,1.3c0.5,0,1.2-0.2,1.5-0.6l0.7,1
		c-0.6,0.5-1.5,0.8-2.4,0.8c-1.8,0-3.1-1.2-3.1-3C53.4,23.2,54.6,21.8,56.4,21.8z M54.9,24.3h2.9c0-0.6-0.4-1.3-1.4-1.3
		C55.4,23.1,55,23.8,54.9,24.3z"/>
	<path class="st3" d="M64.3,24.3c0-0.8-0.4-1.1-1.1-1.1c-0.6,0-1.1,0.3-1.3,0.7v3.9h-1.5V22h1.5v0.8c0.4-0.4,1.1-0.9,2-0.9
		c1.3,0,1.9,0.7,1.9,1.8v4.1h-1.5V24.3z"/>
	<path class="st3" d="M67.6,26.3v-3h-1V22h1v-1.6h1.5V22h1.2v1.3h-1.2v2.6c0,0.4,0.2,0.6,0.5,0.6c0.2,0,0.4-0.1,0.5-0.2l0.3,1.2
		c-0.2,0.2-0.6,0.4-1.3,0.4C68.2,27.9,67.6,27.4,67.6,26.3z"/>
</g>
<g>
	<polyline class="st4" points="35.7,54.4 35.7,58.5 25.9,58.5 25.9,49.6 33.2,49.6 	"/>
	<polyline class="st4" points="28.4,53.6 30.8,56.1 36.5,49.6 	"/>
	<polyline class="st4" points="35.7,67.4 35.7,71.5 25.9,71.5 25.9,62.6 33.2,62.6 	"/>
	<polyline class="st4" points="28.4,66.6 30.8,69 36.5,62.6 	"/>
	<polyline class="st4" points="35.7,41.5 35.7,45.5 25.9,45.5 25.9,36.6 33.2,36.6 	"/>
	<polyline class="st4" points="28.4,40.7 30.8,43.1 36.5,36.6 	"/>
	<path class="st5" d="M52.7,60.9c1.8,0,3.2-1.7,3.2-3.2v-7.3c0-2.7-5.3-4.1-8.1-4.1s-8.1,1.4-8.1,4.1v7.3c0,1.6,1.5,3.2,3.2,3.2"/>
	<path class="st5" d="M47.8,43.9c1.9,0,3.2-1.3,3.2-3.2V39c0-1.9-1.4-3.2-3.2-3.2c-1.9,0-3.2,1.3-3.2,3.2v1.6
		C44.6,42.6,46,43.9,47.8,43.9z"/>
	<line class="st5" x1="52.7" y1="73.1" x2="52.7" y2="52"/>
	<line class="st5" x1="43" y1="52" x2="43" y2="73.1"/>
	<line class="st5" x1="47.8" y1="60.1" x2="47.8" y2="73.1"/>
</g>
</svg>
