<?xml version="1.0" encoding="utf-8"?>
<!-- Generator: Adobe Illustrator 25.1.0, SVG Export Plug-In . SVG Version: 6.00 Build 0)  -->
<svg version="1.1" id="Layer_1" xmlns="http://www.w3.org/2000/svg" xmlns:xlink="http://www.w3.org/1999/xlink" x="0px" y="0px"
	 viewBox="0 0 80 80" style="enable-background:new 0 0 80 80;" xml:space="preserve">
<style type="text/css">
	.st0{fill:#73797C;}
	.st1{fill:#FFFFFF;}
	.st2{fill:none;}
	.st3{enable-background:new    ;}
</style>
<rect class="st0" width="80" height="80"/>
<path id="Steel_reinforcement_2" class="st1" d="M73,48.8L73,48.8C72.9,48.7,72.9,48.7,73,48.8L47.2,33.9c-0.1,0-0.2,0-0.2,0
	l-9.4,5.4c0,0-0.1,0-0.1,0.1l0,0c0,0,0,0,0,0.1l0,0v1.3c0,0.1,0,0.2,0.1,0.2l3.9,2.3v1.5c0,0.7-0.6,1.5-1.2,1.9l-2.7,1.5
	c0,0-0.1,0-0.1,0.1l0,0c0,0,0,0,0,0.1l0,0v1.3c0,0.1,0,0.2,0.1,0.2l25.7,14.8h0.1h0.1l9.4-5.4c0.1,0,0.1-0.1,0.1-0.2v-1.3l0,0v-0.1
	l0,0c0,0,0-0.1-0.1-0.1L69,55.4v-1.5c0-0.7,0.6-1.5,1.2-1.9l2.7-1.5c0.1,0,0.1-0.1,0.1-0.2L73,48.8C73,48.9,73,48.9,73,48.8L73,48.8
	z M47.1,34.3l25.2,14.6L63.4,54L38.2,39.5L47.1,34.3z M38,39.9l25.2,14.6v0.8L38,40.7V39.9z M63.3,55.8L63.3,55.8h0.2l2.7-1.5
	c0.3-0.2,0.6-0.2,0.8-0.1c0.2,0.1,0.2,0.3,0.2,0.5v4.5L42,44.6v-1.1L63.3,55.8z M40.5,47c0.7-0.4,1.3-1.2,1.4-1.9l25.2,14.6
	c-0.1,0.6-0.6,1.4-1.2,1.8L63.4,63L38.2,48.4L40.5,47z M38,48.8l25.2,14.6v0.8L38,49.6V48.8z M72.3,57.8L70,59.2
	c-0.3,0.2-0.6,0.2-0.8,0.1C69,59.2,69,59,69,58.8v-2.9L72.3,57.8z M72.6,50.1L70,51.6c-0.8,0.5-1.5,1.5-1.5,2.3v4.9
	c0,0.4,0.2,0.7,0.4,0.9c0.3,0.2,0.8,0.1,1.2-0.1l2.3-1.4V59l-8.9,5.2v-0.8l2.6-1.5c0.8-0.5,1.4-1.5,1.4-2.3l0,0l0,0v-4.9
	c0-0.4-0.2-0.7-0.4-0.9c-0.3-0.2-0.8-0.1-1.2,0.1l-2.3,1.4v-0.8l8.9-5.2L72.6,50.1L72.6,50.1z"/>
<path class="st0" d="M50.7,54.2c-0.1-0.5-0.2-1-0.6-1.3c-0.1-0.7-0.5-1.3-1-1.7c-0.2-0.6-0.6-1.2-1.2-1.5c-0.3-0.5-0.9-1-1.7-1
	c-0.2-0.2-0.4-0.3-0.6-0.4c0.8-0.5,1.2-1.5,1.1-2.4c0.1-0.7-0.1-1.4-0.5-1.9c0-0.8-0.3-1.5-1-2c-0.2-0.5-0.6-0.9-1.1-1.2
	c-0.3-0.6-0.9-1.1-1.6-1.2c-0.2-0.2-0.4-0.4-0.7-0.6c1.3-0.6,1.6-2.3,1-3.5c-0.1-0.4-0.3-0.9-0.6-1.2c-0.1-0.7-0.5-1.3-1.1-1.6
	c-0.1-0.2-0.3-0.3-0.4-0.5c-0.3-0.6-0.7-1.1-1.4-1.3c-0.4-0.4-1-0.7-1.8-0.7s-1.3,0.3-1.7,0.7c-0.7,0.1-1.3,0.4-1.6,0.8
	c-0.6,0.1-1,0.4-1.3,0.8c-0.7,0.1-1.2,0.5-1.5,1c-0.9,0.1-1.5,0.5-1.8,1.1c-0.7,0.1-1.2,0.4-1.6,0.9c-0.6,0.1-1.1,0.3-1.5,0.7
	c-0.2,0.1-0.4,0.2-0.6,0.3c-0.7,0.1-1.2,0.4-1.5,0.9c-0.3,0.1-0.5,0.2-0.7,0.3c-0.6,0.1-1,0.5-1.3,0.9c-0.8,0.1-1.3,0.5-1.7,1
	c-0.2,0.1-0.3,0.1-0.5,0.2c-0.5,0.1-0.9,0.3-1.2,0.6c-0.4,0.1-0.7,0.4-1,0.6l0,0c-0.1,0-0.2,0-0.3,0.1c-0.1,0-0.2,0.1-0.2,0.1
	c-0.3,0.1-0.5,0.3-0.8,0.5c-0.7,0.7-0.9,1.7-0.6,2.7c-0.9,0.1-1.5,0.5-1.8,1.1c-1.8,0.2-2.5,2.2-1.9,3.5l0,0c-1.1,0-1.8,0.5-2.1,1.3
	c-2.1,0.3-2.5,3-1.3,4.3c0,0.7,0.3,1.3,0.8,1.8c0.2,0.5,0.5,0.9,0.9,1.2c0.4,0.7,1.1,1.3,2.1,1.3c0,0,0,0,0.1,0
	c0.3,0.1,0.7,0.2,1.1,0.2c0.8,0,1.4-0.3,1.8-0.8c0.2,0,0.3,0.1,0.5,0.1c0,0,0,0,0.1,0c0.1,0.2,0.3,0.3,0.5,0.5c0,0.5,0.2,1,0.4,1.4
	c0.1,0.3,0.2,0.5,0.4,0.7c0.2,0.5,0.6,0.9,1.1,1.1c0.1,0.1,0.3,0.2,0.4,0.3c0.3,0.3,0.6,0.6,1.1,0.7c0.4,0.3,0.9,0.5,1.5,0.5
	c0.9,0,1.6-0.4,2-1c0.1,0.3,0.4,0.5,0.6,0.7c0.1,0.2,0.1,0.4,0.2,0.6c0.1,0.9,0.6,1.8,1.6,2.1c0.3,0.6,0.7,1,1.4,1.2
	c0.4,0.5,1,0.8,1.8,0.8c0.9,0,1.6-0.4,2-1c0.5-0.1,0.9-0.3,1.2-0.5c0.4-0.1,0.7-0.2,1-0.4c0.2-0.1,0.4-0.1,0.6-0.3
	c0.4-0.1,0.7-0.2,1-0.4c0.4-0.2,0.7-0.4,1-0.8c0.6-0.1,1-0.4,1.4-0.7c0.3-0.1,0.6-0.3,0.8-0.5c0.4-0.1,0.7-0.2,0.9-0.5
	c0.4-0.1,0.7-0.2,0.9-0.5c0.5-0.1,0.9-0.4,1.2-0.8c0.2-0.1,0.4-0.2,0.5-0.3c0.1,0,0.1-0.1,0.2-0.1c0.6-0.1,1.1-0.5,1.4-0.9
	c0.4-0.1,0.7-0.4,1-0.6c0.3-0.1,0.6-0.2,0.8-0.4c0.5-0.1,0.9-0.3,1.2-0.7c0,0,0.1,0,0.1-0.1c0.8-0.1,1.3-0.5,1.7-1
	c0.4-0.1,0.7-0.3,1-0.5C50.5,57,51,55.5,50.7,54.2z"/>
<path id="Wood_4" class="st1" d="M43.1,61.2l-12.5,7.2c-0.3,0.2-0.7,0.3-1.1,0.3c-0.6,0-1.3-0.2-2.1-0.6c-1.7-1-3.1-2.8-3.7-4.6
	L22.8,64c-0.3,0.2-0.7,0.3-1.1,0.3c-0.6,0-1.3-0.2-2.1-0.6c-1.7-1-3.1-2.8-3.7-4.6L15,59.6c-0.3,0.2-0.7,0.3-1.1,0.3
	c-0.6,0-1.3-0.2-2.1-0.6c-2.2-1.3-4-4.1-4-6.3c0-1,0.4-1.8,1.1-2.2l2.9-1.6c0-0.2-0.1-0.5-0.1-0.7c0-1,0.4-1.8,1.1-2.2l2.9-1.6
	c0-0.2-0.1-0.5-0.1-0.7c0-1,0.4-1.8,1.1-2.2l19.4-11.2c0.8-0.5,2-0.3,3.2,0.4c1.6,0.9,3,2.7,3.6,4.4l0,0v0.1
	c0.2,0.6,0.4,1.3,0.4,1.8c0,1-0.4,1.8-1.1,2.2l0,0c0.3,0.1,0.7,0.3,1,0.4c1.6,0.9,3,2.7,3.6,4.4l0,0v0.1c0.2,0.6,0.4,1.3,0.4,1.8
	c0,1-0.4,1.8-1.1,2.2l0,0c0.3,0.1,0.7,0.3,1,0.4c0.4,0.2,0.8,0.5,1.1,0.8c1.1,1,2,2.3,2.5,3.6l0,0v0.1c0.2,0.6,0.4,1.3,0.4,1.8
	c0,1-0.4,1.8-1.1,2.2L43.1,61.2 M10.5,50.3c0.5,0.1,1.1,0.3,1.7,0.6c0.2,0.1,0.3,0.2,0.5,0.3c-0.3-0.6-0.6-1.2-0.7-1.8L10.5,50.3z
	 M27.3,57.1c0-2.1-1.7-4.7-3.7-5.9c-0.6-0.4-1.3-0.6-1.8-0.6c-0.3,0-0.6,0.1-0.9,0.2c-0.5,0.3-0.8,0.9-0.8,1.8
	c0,2.1,1.7,4.7,3.7,5.9c1,0.6,2,0.7,2.7,0.4C27,58.6,27.3,58,27.3,57.1z M20.7,50.4c-0.3-0.1-0.7-0.3-1-0.4
	c-0.2-0.1-0.3-0.2-0.5-0.3c0.3,0.5,0.5,1.1,0.7,1.6C20.1,50.9,20.3,50.7,20.7,50.4C20.7,50.5,20.7,50.5,20.7,50.4z M23.6,59
	c-0.2-0.1-0.3-0.2-0.5-0.3c0.3,0.5,0.5,1.1,0.7,1.6c0.2-0.3,0.4-0.6,0.8-0.8l0,0C24.2,59.3,23.9,59.2,23.6,59z M19.9,54.4L19,54.9
	l0,0c0.3,0.1,0.7,0.3,1,0.4c0.2,0.1,0.3,0.2,0.5,0.3C20.2,55.2,20,54.8,19.9,54.4z M16.8,55L16.8,55c-0.3-0.1-0.6-0.3-0.9-0.5
	c-0.2-0.1-0.3-0.2-0.5-0.3c0.3,0.5,0.5,1.1,0.7,1.6C16.2,55.5,16.5,55.2,16.8,55z M12.4,48.2c0,2.1,1.7,4.7,3.7,5.9
	c1,0.6,2,0.7,2.7,0.4c0.5-0.3,0.8-0.9,0.8-1.8c0-2.1-1.7-4.7-3.7-5.9c-0.6-0.4-1.3-0.6-1.8-0.6c-0.3,0-0.6,0.1-0.9,0.2
	C12.6,46.7,12.4,47.4,12.4,48.2z M14.4,45.7c0.5,0.1,1.1,0.3,1.7,0.6c0.2,0.1,0.3,0.2,0.5,0.3c-0.3-0.6-0.6-1.2-0.7-1.8L14.4,45.7z
	 M16.2,43.7c0,2.1,1.7,4.7,3.7,5.9c1,0.6,2,0.7,2.7,0.4c0.5-0.3,0.8-0.9,0.8-1.8c0-2.1-1.7-4.7-3.7-5.9c-0.6-0.4-1.3-0.6-1.8-0.6
	c-0.3,0-0.6,0.1-0.9,0.2C16.5,42.2,16.2,42.8,16.2,43.7z M42.8,37c0-0.5-0.1-0.9-0.2-1.4l-10.5,6H32c-0.1,0-0.2,0-0.2-0.1
	c-0.1-0.1,0-0.3,0.1-0.4L42.4,35c-0.6-1.6-1.9-3.1-3.3-4c-1-0.6-2-0.7-2.7-0.4L18.3,41.2c0.5,0.1,1.1,0.3,1.7,0.6
	c0.4,0.2,0.8,0.5,1.2,0.9l11.4-6.6c0.1-0.1,0.3,0,0.4,0.1c0.1,0.1,0,0.3-0.1,0.4l-11.3,6.5c0.8,0.8,1.5,1.9,1.9,2.9l2.8-1.6
	c0.1-0.1,0.3,0,0.4,0.1s0,0.3-0.1,0.4l-2.9,1.7c0.2,0.6,0.3,1.1,0.3,1.7c0,0.4-0.1,0.8-0.2,1.1L42,38.7C42.5,38.4,42.8,37.8,42.8,37
	z M46.7,46c0-0.5-0.1-0.9-0.2-1.4l-10.5,6h-0.1c-0.1,0-0.2,0-0.2-0.1c-0.1-0.1,0-0.3,0.1-0.4L46.3,44c-0.6-1.6-1.9-3.1-3.3-4
	c-0.5-0.3-0.9-0.4-1.4-0.5L22.9,50.3l0,0c0.3,0.1,0.7,0.3,1,0.4c0.4,0.2,0.8,0.5,1.2,0.9L36.5,45c0.1-0.1,0.3,0,0.4,0.1
	c0.1,0.1,0,0.3-0.1,0.4L25.5,52c0.8,0.8,1.5,1.9,1.9,2.9l2.8-1.6c0.1-0.1,0.3,0,0.4,0.1s0,0.3-0.1,0.4l-2.9,1.7
	c0.2,0.6,0.3,1.1,0.3,1.7c0,0.4-0.1,0.8-0.2,1.1l18.2-10.5C46.4,47.4,46.7,46.8,46.7,46z M43.1,60.6l6.6-3.8
	c0.5-0.3,0.8-0.9,0.8-1.8c0-0.5-0.1-0.9-0.2-1.4l-10.5,6h-0.1c-0.1,0-0.2,0-0.2-0.1c-0.1-0.1,0-0.3,0.1-0.4L50.1,53
	c-0.5-1.2-1.3-2.3-2.3-3.2c-0.3-0.3-0.7-0.5-1-0.8c-0.5-0.3-0.9-0.4-1.4-0.5L26.8,59.4l0,0c0.3,0.1,0.7,0.3,1,0.4
	c0.4,0.2,0.8,0.5,1.2,0.9l11.4-6.6c0.1-0.1,0.3,0,0.4,0.1c0.1,0.1,0,0.3-0.1,0.4l-11.3,6.5c0.8,0.8,1.5,1.9,1.9,2.9l2.8-1.6
	c0.1-0.1,0.3,0,0.4,0.1c0.1,0.1,0,0.3-0.1,0.4l-2.9,1.7c0.2,0.6,0.3,1.1,0.3,1.7c0,0.4-0.1,0.8-0.2,1.1L43.1,60.6 M27.7,67.6
	c1,0.6,2,0.7,2.7,0.4c0.5-0.3,0.8-0.9,0.8-1.8c0-2.1-1.7-4.7-3.7-5.9c-0.6-0.4-1.3-0.6-1.8-0.6c-0.3,0-0.6,0.1-0.9,0.2
	c-0.5,0.3-0.8,0.9-0.8,1.8C24,63.7,25.6,66.4,27.7,67.6z M20,63.1c1,0.6,2,0.7,2.7,0.4c0.5-0.3,0.8-0.9,0.8-1.8
	c0-2.1-1.7-4.7-3.7-5.9c-0.6-0.4-1.3-0.6-1.8-0.6c-0.3,0-0.6,0.1-0.9,0.2c-0.5,0.3-0.8,0.9-0.8,1.8C16.2,59.3,17.9,61.9,20,63.1z
	 M12.2,58.6c1,0.6,2,0.7,2.7,0.4c0.5-0.3,0.8-0.9,0.8-1.8c0-2.1-1.7-4.7-3.7-5.9c-0.6-0.4-1.3-0.6-1.8-0.6c-0.3,0-0.6,0.1-0.9,0.2
	c-0.5,0.3-0.8,0.9-0.8,1.8C8.5,54.8,10.2,57.4,12.2,58.6z"/>
<path class="st0" d="M56,59c0-0.2-0.1-0.5-0.2-0.7c0-0.8,0-1.7,0-2.5v-0.1c0-0.4,0.2-1,0-1.4c0.1-0.5,0.1-1-0.1-1.5
	c0,0-3.9,2.1-4.3,2.5c-0.4,0.2-0.8,0.5-1.2,0.7c-0.5,0.3-1,0.6-1.5,0.9c-0.1,0.1-0.6,0.3-0.6,0.4c0,0,0,0,0,0.1
	c-0.1,0.1-0.7,0.4-0.6,0.3c-0.4,0.2-0.7,0.4-1.1,0.6v-0.1c0,0-0.7,0.4-0.6,0.4c-0.5,0.3-1,0.6-1.5,0.9c-0.5,0.3-1,0.6-1.5,0.9
	c-0.1,0-0.6,0.3-0.6,0.4c0.2,1.3,0.3,2.6,0.3,4c0,0.6,0,1.3-0.1,1.9s-0.1,1.3,0,1.9c0,0,0.7-0.4,0.6-0.4c0,0,0,0,0.1,0v0.1
	c0,0,0.7-0.4,0.6-0.4c0.5-0.3,1-0.6,1.5-0.9s1-0.6,1.5-0.9c0.1,0,0.6-0.3,0.6-0.4l0,0c0.1-0.1,0.7-0.4,0.6-0.3
	c0.5-0.3,1-0.6,1.5-0.9s1-0.6,1.5-0.9c0.1,0,0.6-0.3,0.6-0.4v-0.1c0.3-0.2,2-1.1,2.1-1.2c0.5-0.3,1-0.6,1.5-0.9
	c0.1-0.1,0.6-0.3,0.6-0.4C55.9,60,56,60,56,59z"/>
<path class="st0" d="M42.1,64.6c0-1.4-0.2-2.8,0-4.1c0,0-0.7-0.4-0.6-0.4c-0.3-0.2-0.7-0.4-1-0.6c-0.3-0.2-1.9-1.1-2.1-1.2
	c-0.5-0.3-1-0.6-1.5-0.9c-0.1,0-0.6-0.3-0.6-0.4c-0.4,1.3-0.2,2.5-0.1,3.8c0.1,1.3,0,2.7-0.1,4c0,0,0.7,0.4,0.6,0.4
	c0.5,0.3,1,0.6,1.5,0.9s1,0.6,1.5,0.9c0.1,0,0.6,0.3,0.6,0.4l0,0c0.4,0.2,0.7,0.4,1.1,0.6c0,0,0.1,0.1,0.3,0.1
	c0.1,0.1,0.3,0.1,0.4,0.2c0-0.4,0-0.8-0.1-1.2c0,0,0,0-0.1-0.1c0-0.2,0-0.3,0.1-0.5C42.1,65.9,42.1,65.3,42.1,64.6z"/>
<path class="st0" d="M55.6,52.7c0,0-0.7-0.4-0.6-0.4c-0.5-0.3-1-0.6-1.5-0.9c-0.5-0.3-1-0.6-1.5-0.9c-0.1,0-0.6-0.4-0.6-0.4l0,0
	c-0.3-0.2-0.6-0.4-0.9-0.5c-0.1-0.1-0.5-0.4-0.6-0.4c-1.1,0.3-1.9,1.3-3,1.7c-0.3,0.1-0.6,0.2-0.8,0.3c-0.3,0.1-0.5,0.4-0.7,0.5
	c-0.5,0.4-1.2,0.7-1.7,1c-1.1,0.6-2,1.4-3.1,2c-1.3,0.8-2.6,1.6-4,2.3c0,0,0.7,0.4,0.6,0.4c0.4,0.2,0.7,0.4,1.1,0.6
	c-0.1,0-0.1,0.1-0.2,0.1c0,0,0.7,0.4,0.6,0.4c0.5,0.3,1,0.6,1.5,0.9c0.5,0.3,1,0.6,1.5,0.9c0.1,0.1,0.6,0.4,0.6,0.4
	c1.4-0.8,3-1.4,4.3-2.4c0.5-0.4,1-0.8,1.6-1.2c0.6-0.3,1.6-0.3,1.8-1l0,0c0.5-0.2,0.9-0.4,1.4-0.7c1-0.6,2-1.3,3-2
	C54.7,53.2,55.2,53,55.6,52.7z"/>
<path id="Brick_5" class="st1" d="M35.9,57L35.9,57C35.9,56.9,36,56.9,35.9,57l13.7-8c0.1,0,0.1,0,0.2,0l6.1,3.5c0,0,0,0,0.1,0.1
	l0,0c0,0,0,0,0,0.1l0,0v7.9c0,0.1,0,0.1-0.1,0.2l-13.7,7.9l0,0h-0.1H42l-6-3.6c-0.1,0-0.1-0.1-0.1-0.2V57C35.9,57.1,35.9,57,35.9,57
	L35.9,57z M49.7,49.4l-13.3,7.7l5.7,3.3l13.3-7.7L49.7,49.4z M42.3,68.1l13.3-7.7V53l-13.3,7.7V68.1z M36.3,64.8l5.7,3.3v-7.5
	l-5.7-3.3V64.8z M48.6,63.8C48.6,63.9,48.6,63.9,48.6,63.8L48.6,63.8C48.5,63.9,48.5,63.9,48.6,63.8l-5.3,3.1h-0.1h-0.1
	c-0.1,0-0.1-0.1-0.1-0.2V61c0-0.1,0-0.1,0.1-0.2l5.3-3c0.1,0,0.1,0,0.2,0c0.1,0,0.1,0.1,0.1,0.2L48.6,63.8
	C48.6,63.7,48.6,63.7,48.6,63.8L48.6,63.8z M43.4,66.5l4.7-2.7l-4.7-2.7h-0.1L43.4,66.5L43.4,66.5z M43.8,60.9l4.5,2.6v-5.2
	L43.8,60.9z M54.9,60.2L54.9,60.2L54.9,60.2C54.8,60.3,54.8,60.3,54.9,60.2l-5.3,3.1h-0.1h-0.1c-0.1,0-0.1-0.1-0.1-0.2v-5.8
	c0-0.1,0-0.1,0.1-0.2l5.3-3c0.1,0,0.1,0,0.2,0c0.1,0,0.1,0.1,0.1,0.2L54.9,60.2C54.9,60.1,54.9,60.1,54.9,60.2
	C54.9,60.1,54.9,60.2,54.9,60.2z M49.7,62.8l4.7-2.7l-4.7-2.7h-0.1L49.7,62.8L49.7,62.8z M50.1,57.2l4.5,2.6v-5.2L50.1,57.2z"/>
<rect x="3.5" y="7.4" class="st2" width="72.5" height="13.6"/>
<g class="st3">
	<path class="st1" d="M19.5,10.6l-2.6,6.7H16l-2.6-6.7v6.7h-2V7.9h2.8l2.3,5.8l2.3-5.8h2.8v9.3h-2L19.5,10.6L19.5,10.6z"/>
	<path class="st1" d="M27.4,16.6c-0.5,0.5-1.3,0.9-2.1,0.9c-1.1,0-2.4-0.7-2.4-2.2c0-1.6,1.3-2.2,2.4-2.2c0.9,0,1.7,0.3,2.1,0.8V13
		c0-0.7-0.6-1.1-1.5-1.1c-0.7,0-1.4,0.3-2,0.8l-0.7-1.2c0.8-0.7,1.9-1.1,3-1.1c1.5,0,3,0.6,3,2.6v4.4h-1.8V16.6z M27.4,14.8
		c-0.3-0.4-0.9-0.6-1.4-0.6c-0.7,0-1.3,0.4-1.3,1s0.6,1,1.3,1c0.6,0,1.1-0.2,1.4-0.6V14.8z"/>
	<path class="st1" d="M31.3,15.6v-3.5h-1.1v-1.6h1.1V8.7h1.8v1.8h1.4v1.6h-1.4v3.1c0,0.4,0.2,0.7,0.6,0.7c0.3,0,0.5-0.1,0.6-0.2
		l0.4,1.3c-0.3,0.2-0.7,0.4-1.5,0.4C32,17.4,31.3,16.8,31.3,15.6z"/>
	<path class="st1" d="M38.7,10.3c2,0,3.4,1.5,3.4,3.7v0.4h-5c0.1,0.9,0.8,1.6,1.9,1.6c0.6,0,1.4-0.3,1.8-0.7l0.8,1.1
		c-0.7,0.6-1.7,0.9-2.8,0.9c-2.1,0-3.6-1.4-3.6-3.6C35.2,11.9,36.7,10.3,38.7,10.3z M37.1,13.3h3.3c0-0.6-0.5-1.5-1.7-1.5
		C37.6,11.8,37.2,12.6,37.1,13.3z"/>
	<path class="st1" d="M43.4,10.5h1.8v0.9c0.5-0.6,1.3-1.1,2.2-1.1V12c-0.1,0-0.3-0.1-0.5-0.1c-0.6,0-1.4,0.3-1.7,0.8v4.5h-1.8V10.5z
		"/>
	<path class="st1" d="M48.3,8.5c0-0.6,0.5-1.1,1.1-1.1s1.1,0.5,1.1,1.1S50,9.6,49.4,9.6C48.8,9.5,48.3,9,48.3,8.5z M48.5,10.5h1.8
		v6.8h-1.8V10.5z"/>
	<path class="st1" d="M56.1,16.6c-0.5,0.5-1.3,0.9-2.1,0.9c-1.1,0-2.4-0.7-2.4-2.2c0-1.6,1.3-2.2,2.4-2.2c0.9,0,1.7,0.3,2.1,0.8V13
		c0-0.7-0.6-1.1-1.5-1.1c-0.7,0-1.4,0.3-2,0.8l-0.7-1.2c0.8-0.7,1.9-1.1,3-1.1c1.5,0,3,0.6,3,2.6v4.4h-1.8V16.6z M56.1,14.8
		c-0.3-0.4-0.9-0.6-1.4-0.6c-0.7,0-1.3,0.4-1.3,1s0.6,1,1.3,1c0.6,0,1.1-0.2,1.4-0.6V14.8z"/>
	<path class="st1" d="M59.6,7.9h1.8v9.3h-1.8V7.9z"/>
	<path class="st1" d="M63.3,15.1c0.5,0.5,1.5,0.9,2.3,0.9c0.8,0,1.1-0.3,1.1-0.7c0-0.5-0.6-0.6-1.4-0.8c-1.2-0.2-2.7-0.5-2.7-2.1
		c0-1.1,1-2.1,2.8-2.1c1.1,0,2.1,0.4,2.7,0.9l-0.7,1.2c-0.4-0.4-1.2-0.8-2-0.8c-0.6,0-1.1,0.2-1.1,0.6c0,0.4,0.5,0.6,1.3,0.7
		c1.2,0.2,2.7,0.5,2.7,2.2c0,1.2-1.1,2.2-2.9,2.2c-1.2,0-2.3-0.4-3-1.1L63.3,15.1z"/>
</g>
</svg>
