<?xml version="1.0" encoding="utf-8"?>
<!-- Generator: Adobe Illustrator 25.1.0, SVG Export Plug-In . SVG Version: 6.00 Build 0)  -->
<svg version="1.1" id="Layer_1" xmlns="http://www.w3.org/2000/svg" xmlns:xlink="http://www.w3.org/1999/xlink" x="0px" y="0px"
	 viewBox="0 0 80 80" style="enable-background:new 0 0 80 80;" xml:space="preserve">
<style type="text/css">
	.st0{fill:#73797C;}
	.st1{enable-background:new    ;}
	.st2{fill:#FFFFFF;}
</style>
<rect class="st0" width="80" height="80"/>
<g class="st1">
	<path class="st2" d="M10.2,12.6c0-2.9,2.2-4.8,4.9-4.8c2.1,0,3.3,1.1,4,2.3l-1.7,0.8c-0.4-0.8-1.2-1.4-2.3-1.4
		c-1.6,0-2.9,1.3-2.9,3.1s1.2,3.1,2.9,3.1c1,0,1.9-0.6,2.3-1.4l1.7,0.8c-0.7,1.2-1.8,2.3-4,2.3C12.4,17.4,10.2,15.5,10.2,12.6z"/>
	<path class="st2" d="M24.3,16.6c-0.5,0.5-1.3,0.9-2.1,0.9c-1.1,0-2.4-0.7-2.4-2.2c0-1.6,1.3-2.2,2.4-2.2c0.9,0,1.7,0.3,2.1,0.8V13
		c0-0.7-0.6-1.1-1.5-1.1c-0.7,0-1.4,0.3-2,0.8l-0.7-1.2c0.8-0.7,1.9-1.1,3-1.1c1.5,0,3,0.6,3,2.6v4.4h-1.8V16.6z M24.3,14.8
		c-0.3-0.4-0.9-0.6-1.4-0.6c-0.7,0-1.3,0.4-1.3,1s0.6,1,1.3,1c0.6,0,1.1-0.2,1.4-0.6V14.8z"/>
	<path class="st2" d="M27.9,10.5h1.8v0.9c0.5-0.6,1.3-1.1,2.2-1.1V12c-0.1,0-0.3-0.1-0.5-0.1c-0.6,0-1.4,0.3-1.7,0.8v4.5h-1.8V10.5z
		"/>
	<path class="st2" d="M32.9,7.9h1.8v3.4c0.5-0.7,1.3-1,2.1-1c1.7,0,3,1.3,3,3.6s-1.3,3.5-3,3.5c-0.8,0-1.6-0.4-2.1-1v0.9h-1.8V7.9z
		 M36.2,15.9c1,0,1.7-0.8,1.7-2s-0.7-2-1.7-2c-0.6,0-1.2,0.3-1.5,0.8v2.4C35,15.5,35.6,15.9,36.2,15.9z"/>
	<path class="st2" d="M40.7,13.9c0-1.9,1.3-3.5,3.6-3.5c2.2,0,3.6,1.6,3.6,3.5s-1.3,3.6-3.6,3.6C42,17.4,40.7,15.8,40.7,13.9z
		 M46,13.9c0-1.1-0.6-2-1.7-2c-1.1,0-1.7,0.9-1.7,2s0.6,2,1.7,2S46,15,46,13.9z"/>
	<path class="st2" d="M53.7,13.2c0-0.9-0.5-1.3-1.2-1.3s-1.2,0.4-1.5,0.8v4.6h-1.8v-6.8H51v0.9c0.4-0.5,1.3-1.1,2.4-1.1
		c1.5,0,2.2,0.8,2.2,2.2v4.8h-1.8v-4.1H53.7z"/>
	<path class="st2" d="M68.9,17.3h-2.3c-0.2-0.2-0.4-0.4-0.7-0.7c-0.7,0.5-1.5,0.9-2.5,0.9c-1.7,0-3.1-0.9-3.1-2.7c0-1.4,1-2.2,2-2.7
		c-0.4-0.7-0.6-1.4-0.6-2c0-1.3,1.1-2.2,2.7-2.2c1.3,0,2.5,0.7,2.5,2c0,1.4-1.1,2-2.3,2.6c0.3,0.4,0.6,0.7,0.8,1
		c0.3,0.3,0.5,0.6,0.8,1c0.4-0.6,0.7-1.3,0.9-1.8l1.4,0.7c-0.3,0.7-0.8,1.5-1.3,2.3C67.6,16,68.2,16.6,68.9,17.3z M64.9,15.6
		c-0.4-0.5-0.8-0.9-1-1.2c-0.3-0.4-0.6-0.8-0.9-1.2c-0.5,0.3-0.8,0.8-0.8,1.4c0,0.9,0.7,1.5,1.4,1.5C64.1,16,64.5,15.9,64.9,15.6z
		 M63.9,11.3c0.8-0.4,1.4-0.8,1.4-1.5c0-0.5-0.4-0.8-0.8-0.8c-0.6,0-1,0.4-1,1C63.5,10.5,63.6,10.9,63.9,11.3z"/>
</g>
<g class="st1">
	<path class="st2" d="M19.1,24.7h6.6v1.7h-4.6v2h4.5v1.7h-4.5v2.2h4.6V34h-6.6V24.7z"/>
	<path class="st2" d="M31.8,30c0-0.9-0.5-1.3-1.2-1.3s-1.2,0.4-1.5,0.8v4.6h-1.8v-6.8H29v0.9c0.4-0.5,1.3-1.1,2.4-1.1
		c1.5,0,2.2,0.8,2.2,2.2v4.8h-1.8V30z"/>
	<path class="st2" d="M38.4,27.1c2,0,3.4,1.5,3.4,3.7v0.4h-5c0.1,0.9,0.8,1.6,1.9,1.6c0.6,0,1.4-0.3,1.8-0.7l0.8,1.1
		c-0.7,0.6-1.7,0.9-2.8,0.9c-2.1,0-3.6-1.4-3.6-3.6C34.9,28.7,36.3,27.1,38.4,27.1z M36.7,30.1H40c0-0.6-0.5-1.5-1.7-1.5
		C37.3,28.6,36.8,29.4,36.7,30.1z"/>
	<path class="st2" d="M43.1,27.3h1.8v0.9c0.5-0.6,1.3-1.1,2.2-1.1v1.7c-0.1,0-0.3-0.1-0.5-0.1c-0.6,0-1.4,0.3-1.7,0.8V34h-1.8V27.3z
		"/>
	<path class="st2" d="M48.8,34.5c0.5,0.6,1.3,0.8,2.1,0.8s1.9-0.4,1.9-1.7V33c-0.5,0.7-1.3,1.1-2.1,1.1c-1.7,0-3-1.2-3-3.4
		s1.3-3.4,3-3.4c0.8,0,1.5,0.3,2.1,1v-0.9h1.8v6.3c0,2.6-2,3.2-3.7,3.2c-1.2,0-2.1-0.3-2.9-1L48.8,34.5z M52.7,29.5
		c-0.3-0.4-0.9-0.8-1.5-0.8c-1,0-1.7,0.7-1.7,1.9c0,1.2,0.7,1.9,1.7,1.9c0.6,0,1.2-0.3,1.5-0.8V29.5z"/>
	<path class="st2" d="M56.9,35.2c0.5,0,0.8-0.1,0.9-0.5l0.3-0.6l-2.7-6.9h1.9L59,32l1.8-4.7h1.9l-3.2,7.9c-0.5,1.3-1.4,1.6-2.6,1.6
		c-0.2,0-0.7,0-0.9-0.1l0.3-1.6C56.5,35.2,56.7,35.2,56.9,35.2z"/>
</g>
<polygon class="st2" points="49,40.3 38.4,40.3 31,59.2 38.8,59.2 33.6,76.9 48.1,55.1 41.1,55.1 "/>
</svg>
