<?xml version="1.0" encoding="utf-8"?>
<!-- Generator: Adobe Illustrator 25.1.0, SVG Export Plug-In . SVG Version: 6.00 Build 0)  -->
<svg version="1.1" id="Layer_1" xmlns="http://www.w3.org/2000/svg" xmlns:xlink="http://www.w3.org/1999/xlink" x="0px" y="0px"
	 viewBox="0 0 80 80" style="enable-background:new 0 0 80 80;" xml:space="preserve">
<style type="text/css">
	.st0{fill:#73797C;}
	.st1{clip-path:url(#SVGID_2_);}
	.st2{clip-path:url(#SVGID_4_);fill:#FFFFFF;}
	.st3{clip-path:url(#SVGID_4_);fill:#73797C;}
	.st4{clip-path:url(#SVGID_4_);fill:none;stroke:#FFFFFF;stroke-width:0.7792;stroke-linecap:round;stroke-miterlimit:10;}
	.st5{fill:none;}
	.st6{enable-background:new    ;}
	.st7{fill:#FFFFFF;}
</style>
<rect class="st0" width="80" height="80"/>
<g id="Artwork_1065_2_">
	<g>
		<defs>
			<rect id="SVGID_1_" x="10.5" y="26.5" width="58" height="45"/>
		</defs>
		<clipPath id="SVGID_2_">
			<use xlink:href="#SVGID_1_"  style="overflow:visible;"/>
		</clipPath>
		<g class="st1">
			<defs>
				<rect id="SVGID_3_" x="10.5" y="26.5" width="58" height="45"/>
			</defs>
			<clipPath id="SVGID_4_">
				<use xlink:href="#SVGID_3_"  style="overflow:visible;"/>
			</clipPath>
			<path class="st2" d="M39.6,36.3c2.1,0,3.7-1.7,3.7-3.7c0-2.1-1.7-3.7-3.7-3.7c-2.1,0-3.7,1.7-3.7,3.7
				C35.8,34.7,37.5,36.3,39.6,36.3 M39.6,29.7c1.6,0,2.8,1.3,2.8,2.8c0,1.6-1.3,2.8-2.8,2.8c-1.6,0-2.8-1.3-2.8-2.8
				C36.7,31,38,29.7,39.6,29.7"/>
			<path class="st2" d="M21.2,36.2c2.1,0,3.7-1.7,3.7-3.7c0-2.1-1.7-3.7-3.7-3.7c-2.1,0-3.7,1.7-3.7,3.7
				C17.4,34.5,19.1,36.2,21.2,36.2 M21.2,29.6c1.6,0,2.8,1.3,2.8,2.8c0,1.6-1.3,2.8-2.8,2.8c-1.6,0-2.8-1.3-2.8-2.8
				C18.3,30.9,19.6,29.6,21.2,29.6"/>
			<path class="st2" d="M53.1,51.6c0,0.6,0,0.9,0,1l-0.2,9.8L52.8,69c0,0.7,0.2,1.3,0.7,1.7c0.5,0.5,1.1,0.7,1.7,0.8l0,0
				c1.3,0,2.4-1.1,2.5-2.4l0.1-6.8l0.1-5.7c0.1,0,0.1,0,0.2,0l0.2,5.7l0.2,6.8c0,1.3,1.1,2.4,2.5,2.4l0.1,0c0.7,0,1.3-0.3,1.7-0.8
				c0.4-0.5,0.7-1.1,0.7-1.8l-0.2-6.7l-0.3-9.9c0-0.3,0-1.6,0-3l1,4c0.3,1,1.2,1.7,2.2,1.7c0.3,0,0.6-0.1,0.9-0.2
				c1-0.4,1.6-1.8,1.3-2.9l-3.1-10.8c-0.6-2.3-2.6-4.1-4.8-4.2c0,0-0.1,0-0.1,0l-3.7,0c-1,0-1.9-0.3-2.5-1l-0.8-0.8l-1.7-6.8
				c-0.3-1.1-1.3-1.9-2.4-1.8h0c-0.2,0-0.3,0-0.4,0.1c0,0-0.1,0-0.1,0c-1.2-0.3-2.5,0.5-2.8,1.8l-1.8,6.8l-1.5,1.8
				c-0.6,0.3-5,0.4-5.7,0.1l-1.8-1.9l-1.7-6.7c-0.3-1.3-1.6-2.1-2.8-1.8c-0.1,0-0.1,0-0.2,0c-0.1,0-0.2-0.1-0.3-0.1h0
				c-1.2-0.3-2.5,0.5-2.8,1.8l-1.7,6.7l-0.8,0.8c-0.6,0.7-1.5,1-2.6,1l-3.7,0c0,0-0.1,0-0.1,0c-2.2,0.1-4.2,1.9-4.8,4.2l-3.2,10.9
				c-0.4,1.2,0.3,2.6,1.5,3c0.2,0.1,0.5,0.1,0.7,0.1c1,0,2-0.7,2.3-1.7l1-4c0,1.4,0,2.7,0,3l-0.5,16.6c0,1.4,1,2.5,2.4,2.5l0.1,0
				c1.3,0,2.4-1,2.5-2.4l0.4-12.5c0.1,0,0.1,0,0.2,0l0.2,12.5c0,1.3,1.1,2.4,2.5,2.4l0,0c0.7,0,1.3-0.3,1.7-0.8
				c0.5-0.5,0.7-1.1,0.7-1.7c0-0.2-0.3-17-0.3-17.3c0-0.1,0-8.4,0-9.9c0,0,0-0.1,0-0.1c0.7-0.8,3.6-3.8,3.6-3.8
				c0.1-0.1,0.1-0.1,0.2-0.2l0,0c0,0,0.1-0.1,0.1-0.1l0-0.1c0,0,0-0.1,0.1-0.1c0,0,0,0,0-0.1c0,0,0-0.1,0.1-0.1c0,0,0,0,0-0.1
				c0,0,0-0.1,0-0.1l0,0c0,0,0-0.1,0-0.1l0.3-1.3l0.3,1.4c0,0,0,0.1,0,0.1l0,0c0,0,0,0.1,0,0.1c0,0,0,0,0,0.1c0,0,0,0.1,0,0.1
				c0,0,0,0,0,0.1c0,0,0,0.1,0.1,0.1l0,0.1c0,0,0.1,0.1,0.1,0.1c0,0,0,0,0,0c0,0.1,0.1,0.1,0.1,0.2c0,0,0,0,0,0c0,0,2.6,2.7,3.4,3.7
				c0.1,0.1,0.2,0.3,0.2,0.4c0,1.2,0,4.9,0,7.5c0,1.5,0,2.7,0,2.8l-0.3,16c0,1.2,0.6,2.3,1.6,2.9c0.4,0.2,0.6,0.3,0.8,0.3
				c1.3,0,2.4-1.1,2.5-2.4l0.2-12.5c0.1,0,0.1,0,0.2,0l0.4,12.5c0,1.3,1.1,2.4,2.5,2.4l0.1,0c0.7,0,1.3-0.3,1.7-0.8
				c0.4-0.5,0.7-1.1,0.7-1.8l-0.5-16.6c0-0.3,0.1-1.7,0.2-10.7c0-0.1,0.1-0.3,0.1-0.4l3-3.6c0.1-0.1,0.2-0.2,0.2-0.4l0-0.1
				c0,0,0-0.1,0.1-0.1c0,0,0-0.1,0-0.1c0,0,0-0.1,0-0.1c0,0,0-0.1,0-0.1c0,0,0,0,0,0l0.2-0.9l0.2,0.9c0,0,0,0.1,0,0.1l0,0
				c0,0,0,0.1,0,0.1c0,0,0,0,0,0.1c0,0,0,0.1,0,0.1l0,0.1c0,0,0,0.1,0.1,0.1l0,0.1c0,0,0.1,0.1,0.1,0.1l0,0c0,0.1,0.1,0.1,0.2,0.2
				l3.1,3.3c0.3,0.3,0.4,0.7,0.4,1.1C53,45,53.1,49.6,53.1,51.6"/>
			<path class="st3" d="M62,50.3c0,1.1,0,1.9,0,2c0,0,0,0.1,0,0.1l0.3,9.9l0.2,6.7c0,0.4-0.1,0.8-0.4,1.1c-0.3,0.3-0.7,0.5-1.1,0.5
				l0,0c-0.8,0-1.5-0.7-1.5-1.5l-0.2-6.6L59,56.1c0-0.1-0.1-0.2-0.2-0.3c-0.1-0.1-0.2-0.1-0.3-0.1c-0.3,0-0.6,0-0.9,0
				c-0.1,0-0.3,0-0.3,0.1C57.1,55.9,57,56,57,56.1l-0.1,6.2L56.8,69c0,0.8-0.7,1.5-1.6,1.5l0,0c-0.4,0-0.8-0.2-1.1-0.5
				c-0.3-0.3-0.4-0.7-0.4-1.1l0.1-6.7l0.2-9.6c0,0,0-1,0-2.2"/>
			<path class="st3" d="M54,50.4c0-2.8-0.1-7.4-0.1-8.1c0-0.6-0.2-1.2-0.7-1.7l-3.1-3.3c0,0-0.1-0.1-0.1-0.1l0,0c0,0,0-0.1-0.1-0.1
				l0,0c0,0,0,0,0-0.1l0,0c0,0,0,0,0-0.1c0,0,0,0,0,0l0-0.1c0,0,0-0.1,0-0.1l-1.9-7.4c-0.1-0.4,0-0.9,0.2-1.2
				c0.3-0.4,0.7-0.6,1.1-0.6c0.7,0,1.3,0.5,1.4,1.1l1.8,6.9c0,0.1,0.1,0.1,0.1,0.2l0.8,0.9c0.8,0.9,2,1.3,3.2,1.3l3.7,0
				c0,0,0.1,0,0.1,0c1.8,0.1,3.5,1.6,3.9,3.5l3.2,10.9c0.2,0.7-0.2,1.5-0.8,1.8c-0.2,0.1-0.4,0.1-0.6,0.1c-0.6,0-1.2-0.4-1.4-1
				l-1.9-7.3c-0.1-0.2-0.3-0.4-0.5-0.3c-0.2,0-0.4,0.2-0.4,0.4c0,1.4,0,3.1,0,4.4"/>
			<path class="st3" d="M32.5,28.6l1.7,6.9c0,0.1,0.1,0.1,0.1,0.2l1.9,2c0.4,0.4,2.2,0.5,3.7,0.4c2.9-0.1,3.2-0.4,3.3-0.6l1.6-1.9
				c0-0.1,0.1-0.1,0.1-0.2l1.8-6.9c0.1-0.3,0.3-0.6,0.5-0.8c-0.3,0.5-0.4,1.1-0.2,1.7l1.2,4.7l-0.7,2.4c0,0,0,0,0,0c0,0,0,0,0,0.1
				c0,0,0,0,0,0.1l0,0.1c0,0,0,0,0,0.1c0,0,0,0,0,0c0,0.1-0.1,0.2-0.2,0.2l-3,3.6c-0.2,0.3-0.4,0.6-0.4,1
				c-0.1,6.3-0.2,10.4-0.2,10.6c0,0,0,0.1,0,0.1L44.3,69c0,0.9-0.6,1.6-1.5,1.6l-0.1,0c-0.8,0-1.5-0.7-1.5-1.5l-0.4-12.9
				c0-0.1-0.1-0.2-0.2-0.3c-0.1-0.1-0.2-0.1-0.3-0.1c-0.3,0-0.6,0-0.9,0c-0.1,0-0.3,0-0.3,0.1c-0.1,0.1-0.2,0.2-0.2,0.3l-0.3,12.9
				c0,0.8-0.7,1.5-1.6,1.5c-0.1,0-0.1,0-0.4-0.1c-0.7-0.4-1.2-1.3-1.2-2.2l0.3-16c0,0,0-0.9,0-2.8c0-2.6,0-6.3,0-7.5
				c0-0.4-0.1-0.8-0.4-1C34.5,40,32,37.3,32,37.3c0,0-0.1-0.1-0.1-0.1l0,0c0,0,0-0.1-0.1-0.1l0,0c0,0,0,0,0-0.1l0,0c0,0,0,0,0-0.1
				c0,0,0,0,0,0l0-0.1c0,0,0,0,0,0l-0.8-3l1.1-4.2c0.2-0.6,0.1-1.3-0.3-1.8c0,0,0-0.1-0.1-0.1C32.1,27.7,32.4,28.1,32.5,28.6"/>
			<path class="st3" d="M12.8,54.1c-0.1,0-0.3,0-0.4-0.1c-0.7-0.2-1.1-1.1-0.9-1.9l3.2-10.9c0.5-2,2.1-3.4,3.9-3.5c0,0,0.1,0,0.1,0
				l3.7,0c1.3,0,2.4-0.4,3.2-1.3l0.8-0.9c0.1-0.1,0.1-0.1,0.1-0.2l1.7-6.9c0.2-0.8,1-1.3,1.7-1.1c0.4,0.1,0.7,0.3,0.9,0.7
				c0.2,0.3,0.3,0.7,0.2,1.1l-1.9,7.4c0,0,0,0,0,0l0,0.1l0,0.1c0,0,0,0,0,0.1l0,0c0,0,0,0.1,0,0.1l0,0c0,0,0,0.1-0.1,0.1
				c0,0,0,0,0,0c0,0-0.1,0.1-0.1,0.1c0,0-2.8,3-3.6,3.8c-0.2,0.2-0.3,0.5-0.3,0.7c0,1.5,0,9.8,0,9.9c0,0.2,0.3,16.6,0.3,17.3
				c0,0.4-0.1,0.8-0.4,1.1c-0.3,0.3-0.7,0.5-1.1,0.5c0,0,0,0,0,0c-0.8,0-1.5-0.7-1.6-1.5L22,56.1c0-0.1-0.1-0.2-0.2-0.3
				c-0.1-0.1-0.2-0.1-0.3-0.1c0,0,0,0-0.1,0c-0.3,0-0.6,0-0.9,0c-0.1,0-0.3,0-0.3,0.1C20.1,55.9,20,56,20,56.1L19.6,69
				c0,0.8-0.7,1.5-1.5,1.5l-0.1,0c-0.9,0-1.5-0.7-1.5-1.6l0.5-16.6c0,0,0,0,0-0.1c0-0.3,0-4,0-6.4c0-0.2-0.2-0.4-0.4-0.4
				c-0.2,0-0.4,0.1-0.5,0.3L14.2,53C14,53.6,13.5,54.1,12.8,54.1"/>
			<path class="st2" d="M57.8,36.2c0.2,0,0.4,0,0.6-0.1c1.6-0.3,2.8-1.5,3.1-3.1c0.2-1.2-0.2-2.4-1-3.3c-0.9-0.9-2.1-1.2-3.3-1
				c-1.6,0.3-2.8,1.5-3.1,3.1c-0.2,1.2,0.2,2.4,1,3.3C55.9,35.8,56.8,36.2,57.8,36.2 M55,31.9c0.2-1.2,1.1-2.1,2.3-2.3
				c0.2,0,0.3,0,0.5,0c0.8,0,1.5,0.3,2,0.8c0.7,0.7,0.9,1.6,0.8,2.5c-0.2,1.2-1.1,2.1-2.3,2.3c-0.9,0.2-1.8-0.1-2.5-0.8
				C55.2,33.8,54.9,32.9,55,31.9"/>
			<polygon class="st3" points="66.5,62.3 49.1,62.3 53.5,50.2 55.2,50.2 59.3,50.2 62.3,50.2 			"/>
			<polyline class="st4" points="62.4,50.1 66.6,62.3 62.6,62.3 			"/>
			<polyline class="st4" points="53.5,62.4 49.3,62.4 53.6,50.2 			"/>
		</g>
	</g>
</g>
<rect x="3.5" y="7.4" class="st5" width="72.5" height="13.6"/>
<rect x="5.5" y="6.4" class="st5" width="68.2" height="15.9"/>
<g class="st6">
	<path class="st7" d="M28.8,6.4h7.1v1.8h-4.9v2.2h4.8v1.8h-4.8v2.3h4.9v1.8h-7.1V6.4z"/>
	<path class="st7" d="M37.5,6.4h3.9c3.1,0,5.3,2,5.3,5c0,3-2.2,5-5.3,5h-3.9V6.4z M41.4,14.5c2,0,3.1-1.4,3.1-3.1
		c0-1.8-1.1-3.1-3.1-3.1h-1.8v6.3H41.4z"/>
	<path class="st7" d="M48.3,6.4h2.1v10h-2.1V6.4z"/>
</g>
</svg>
