<?xml version="1.0" encoding="utf-8"?>
<!-- Generator: Adobe Illustrator 25.1.0, SVG Export Plug-In . SVG Version: 6.00 Build 0)  -->
<svg version="1.1" id="Layer_1" xmlns="http://www.w3.org/2000/svg" xmlns:xlink="http://www.w3.org/1999/xlink" x="0px" y="0px"
	 viewBox="0 0 80 80" style="enable-background:new 0 0 80 80;" xml:space="preserve">
<style type="text/css">
	.st0{fill:#73797C;}
	.st1{fill:none;stroke:#FFFFFF;stroke-miterlimit:10;}
	.st2{fill:none;}
	.st3{enable-background:new    ;}
	.st4{fill:#FFFFFF;}
</style>
<rect class="st0" width="80" height="80"/>
<g>
	<g>
		<path class="st1" d="M24.2,61.2c0.4,0.7,1.1,1.2,1.9,1.3h8.8v3.9h-8.8c-2.2-0.1-4.3-1.3-5.4-3.2c-1-1.9-1-4.2,0.2-6l5.1-8.8
			l-3.3-2l8.3-2.2l2.2,8.2l-3.6-2.1l-5.2,8.9C24,59.7,23.9,60.5,24.2,61.2L24.2,61.2z"/>
		<path class="st1" d="M31.2,40.9l4.1-7.6c1.1-1.9,3.1-3.1,5.3-3.1c2.1,0.1,4.1,1.3,5.1,3.2l5.1,8.8l3.3-2L52,48.5l-8.2-2.2l3.6-2.1
			l-5.2-8.9c-0.3-0.6-0.9-1.1-1.7-1.2c-0.8,0-1.4,0.5-1.8,1.1l-4.1,7.6L31.2,40.9L31.2,40.9z"/>
		<path class="st1" d="M59.8,63.5c-1.1,1.8-3,2.9-5.2,2.9H44.3v3.9l-6-6.1l6-6v4.2h10.2c0.7,0.1,1.4-0.3,1.8-1
			c0.4-0.6,0.3-1.5-0.1-2.1l-4.5-7.6l3.5-2l4.5,7.6c0.2,0.5,0.5,1,0.6,1.4l0.1,0.3C60.9,60.5,60.6,62.1,59.8,63.5L59.8,63.5z"/>
	</g>
</g>
<rect x="3.5" y="7.4" class="st2" width="72.5" height="13.6"/>
<g class="st3">
	<path class="st4" d="M22.6,17.3l-2.4-10h2.1l1.5,6.9l1.8-6.9H28l1.8,7l1.5-7h2l-2.4,10h-2.1l-2-7.5l-2,7.5H22.6z"/>
	<path class="st4" d="M35.3,12.2l-1.7-0.3c0.2-0.7,0.5-1.2,1-1.6s1.2-0.5,2.1-0.5c0.9,0,1.5,0.1,1.9,0.3s0.7,0.5,0.9,0.8
		s0.3,0.9,0.3,1.7v2.2c0,0.6,0,1.1,0.1,1.4s0.2,0.6,0.3,1h-1.9c-0.1-0.1-0.1-0.3-0.2-0.6c0-0.1-0.1-0.2-0.1-0.2
		c-0.3,0.3-0.7,0.6-1.1,0.7s-0.8,0.2-1.2,0.2c-0.7,0-1.3-0.2-1.8-0.6s-0.6-0.9-0.6-1.5c0-0.4,0.1-0.8,0.3-1.1s0.5-0.6,0.8-0.7
		c0.4-0.2,0.9-0.3,1.5-0.4c0.9-0.2,1.5-0.3,1.9-0.5v-0.2c0-0.4-0.1-0.6-0.3-0.8s-0.5-0.2-1-0.2c-0.3,0-0.6,0.1-0.8,0.2
		C35.6,11.7,35.4,11.9,35.3,12.2z M37.9,13.8c-0.2,0.1-0.6,0.2-1.2,0.3s-0.9,0.2-1,0.3c-0.3,0.2-0.4,0.4-0.4,0.7s0.1,0.5,0.3,0.7
		s0.5,0.3,0.8,0.3s0.7-0.1,1-0.3c0.2-0.2,0.4-0.4,0.5-0.6C38,15,38,14.7,38,14.3L37.9,13.8L37.9,13.8z"/>
	<path class="st4" d="M41,15.2l1.9-0.3c0.1,0.4,0.2,0.7,0.5,0.9s0.6,0.3,1.1,0.3s0.9-0.1,1.1-0.3c0.2-0.1,0.3-0.3,0.3-0.5
		c0-0.1,0-0.3-0.1-0.4c-0.1-0.1-0.3-0.2-0.6-0.3c-1.5-0.3-2.5-0.7-2.9-0.9c-0.6-0.4-0.9-0.9-0.9-1.6c0-0.6,0.2-1.2,0.7-1.6
		c0.5-0.4,1.3-0.6,2.3-0.6s1.7,0.2,2.2,0.5s0.8,0.8,1,1.4l-1.8,0.3c-0.1-0.3-0.2-0.5-0.4-0.6c-0.2-0.2-0.5-0.2-0.9-0.2
		c-0.5,0-0.9,0.1-1.1,0.2c-0.1,0.1-0.2,0.2-0.2,0.4c0,0.1,0.1,0.3,0.2,0.3c0.2,0.1,0.8,0.3,1.8,0.5s1.7,0.5,2.1,0.9
		c0.4,0.3,0.6,0.8,0.6,1.4c0,0.7-0.3,1.2-0.8,1.7c-0.6,0.5-1.4,0.7-2.5,0.7c-1,0-1.8-0.2-2.3-0.6C41.5,16.4,41.2,15.9,41,15.2z"/>
	<path class="st4" d="M52.8,10v1.5h-1.3v2.9c0,0.6,0,0.9,0,1s0.1,0.2,0.2,0.2s0.2,0.1,0.3,0.1c0.2,0,0.4-0.1,0.8-0.2L53,17
		c-0.4,0.2-1,0.3-1.5,0.3c-0.3,0-0.7-0.1-0.9-0.2c-0.3-0.1-0.5-0.3-0.6-0.5s-0.2-0.4-0.3-0.7c0-0.2-0.1-0.7-0.1-1.4v-3.2h-0.9V10
		h0.9V8.6l1.9-1.1V10H52.8z"/>
	<path class="st4" d="M58.3,15l1.9,0.3C60,16,59.6,16.5,59,16.9c-0.5,0.4-1.2,0.6-2,0.6c-1.3,0-2.2-0.4-2.8-1.2
		c-0.5-0.7-0.7-1.5-0.7-2.5c0-1.2,0.3-2.1,0.9-2.8c0.6-0.7,1.4-1,2.4-1c1.1,0,1.9,0.4,2.6,1.1c0.6,0.7,0.9,1.8,0.9,3.3h-4.8
		c0,0.6,0.2,1,0.5,1.3s0.7,0.5,1.1,0.5c0.3,0,0.6-0.1,0.8-0.2S58.2,15.3,58.3,15z M58.4,13c0-0.6-0.2-1-0.4-1.3
		c-0.3-0.3-0.6-0.4-1-0.4s-0.8,0.2-1,0.5s-0.4,0.7-0.4,1.2H58.4z"/>
</g>
</svg>
