<?xml version="1.0" encoding="utf-8"?>
<!-- Generator: Adobe Illustrator 25.1.0, SVG Export Plug-In . SVG Version: 6.00 Build 0)  -->
<svg version="1.1" id="Layer_1" xmlns="http://www.w3.org/2000/svg" xmlns:xlink="http://www.w3.org/1999/xlink" x="0px" y="0px"
	 viewBox="0 0 80 80" style="enable-background:new 0 0 80 80;" xml:space="preserve">
<style type="text/css">
	.st0{fill:#73797C;}
	.st1{fill:none;}
	.st2{enable-background:new    ;}
	.st3{fill:#FFFFFF;}
	.st4{fill:none;stroke:#FFFFFF;stroke-linecap:round;stroke-linejoin:round;stroke-miterlimit:10;}
</style>
<rect class="st0" width="80" height="80"/>
<rect x="3.5" y="7.4" class="st1" width="72.5" height="13.6"/>
<rect x="0.5" y="6.4" class="st1" width="79" height="15.9"/>
<g class="st2">
	<path class="st3" d="M6.5,10.7c0-2.7,2-4.5,4.6-4.5c2,0,3.1,1,3.7,2.1l-1.6,0.8C12.8,8.4,12,7.9,11,7.9c-1.5,0-2.7,1.2-2.7,2.8
		s1.1,2.8,2.7,2.8c1,0,1.7-0.5,2.1-1.3l1.6,0.8c-0.6,1.1-1.7,2.1-3.7,2.1C8.5,15.2,6.5,13.4,6.5,10.7z"/>
	<path class="st3" d="M15.4,11.9c0-1.8,1.2-3.3,3.3-3.3c2.1,0,3.3,1.5,3.3,3.3c0,1.8-1.2,3.3-3.3,3.3C16.6,15.2,15.4,13.7,15.4,11.9
		z M20.3,11.9c0-1-0.6-1.8-1.6-1.8c-1,0-1.6,0.8-1.6,1.8c0,1,0.6,1.8,1.6,1.8C19.7,13.7,20.3,12.9,20.3,11.9z"/>
	<path class="st3" d="M31,11.1c0-0.6-0.3-1-0.9-1c-0.6,0-1.1,0.4-1.3,0.7V15h-1.7v-4c0-0.6-0.3-1-0.9-1c-0.6,0-1.1,0.4-1.3,0.7V15
		h-1.7V8.8h1.7v0.8c0.3-0.4,1.1-1,2.1-1c0.9,0,1.5,0.4,1.7,1.1c0.4-0.6,1.2-1.1,2.2-1.1c1.2,0,1.8,0.6,1.8,1.9V15H31V11.1z"/>
	<path class="st3" d="M42.1,11.1c0-0.6-0.3-1-0.9-1c-0.6,0-1.1,0.4-1.3,0.7V15h-1.7v-4c0-0.6-0.3-1-0.9-1c-0.6,0-1.1,0.4-1.3,0.7V15
		h-1.7V8.8H36v0.8c0.3-0.4,1.1-1,2.1-1c0.9,0,1.5,0.4,1.7,1.1c0.4-0.6,1.2-1.1,2.2-1.1c1.2,0,1.8,0.6,1.8,1.9V15h-1.7V11.1z"/>
	<path class="st3" d="M49.6,14.3c-0.4,0.5-1.2,0.9-2.2,0.9c-1.4,0-2-0.8-2-2V8.8H47v3.8c0,0.9,0.5,1.2,1.2,1.2
		c0.6,0,1.1-0.4,1.4-0.7V8.8h1.7V15h-1.7V14.3z"/>
	<path class="st3" d="M57.2,11.3c0-0.9-0.5-1.2-1.2-1.2c-0.7,0-1.2,0.4-1.4,0.7V15h-1.7V8.8h1.7v0.8c0.4-0.5,1.2-1,2.2-1
		c1.4,0,2,0.8,2,2V15h-1.7V11.3z"/>
	<path class="st3" d="M60.3,6.9c0-0.5,0.5-1,1-1c0.5,0,1,0.4,1,1s-0.4,1-1,1C60.7,7.8,60.3,7.4,60.3,6.9z M60.4,8.8h1.7V15h-1.7V8.8
		z"/>
	<path class="st3" d="M64.1,13.5v-3.3h-1V8.8h1V7.1h1.7v1.7H67v1.4h-1.3V13c0,0.4,0.2,0.7,0.6,0.7c0.2,0,0.5-0.1,0.6-0.2l0.4,1.2
		c-0.2,0.2-0.7,0.4-1.4,0.4C64.7,15.2,64.1,14.6,64.1,13.5z"/>
	<path class="st3" d="M68.7,16.1c0.4,0,0.7-0.1,0.9-0.5l0.2-0.5l-2.5-6.4H69l1.6,4.4l1.6-4.4h1.8l-3,7.3c-0.5,1.2-1.3,1.5-2.4,1.5
		c-0.2,0-0.6,0-0.8-0.1l0.2-1.5C68.3,16.1,68.5,16.1,68.7,16.1z"/>
</g>
<g>
	<g>
		<path class="st4" d="M55.1,65.5c0.8,0,1.5,0.7,1.5,1.5s-0.7,1.5-1.5,1.5h-5.2"/>
		<path class="st4" d="M57.8,62.5c0.8,0,1.5,0.7,1.5,1.5c0,0.8-0.7,1.5-1.5,1.5H49"/>
		<path class="st4" d="M49,62.5h10.1c0.8,0,1.5-0.7,1.5-1.5s-0.7-1.5-1.5-1.5h-1.3"/>
		<path class="st4" d="M51.1,56.7h6.6c0.8,0,1.5,0.7,1.5,1.5s-0.7,1.5-1.5,1.5h-8.8"/>
		<path class="st4" d="M49.8,53.8h1.3c0.8,0,1.5,0.7,1.5,1.5s-0.7,1.5-1.5,1.5h-4"/>
		<path class="st4" d="M31.8,56.7H39c1.1-1.8,2.8-2.9,4.7-2.9h6.1"/>
		<path class="st4" d="M49.9,68.4h-6.2c-1.9,0-3.6-1.1-4.7-2.9H28.9"/>
		<path class="st4" d="M59.3,33.3c0-0.8,0.7-1.5,1.5-1.5s1.5,0.7,1.5,1.5v5.2"/>
		<path class="st4" d="M56.4,30.6c0-0.8,0.7-1.5,1.5-1.5s1.5,0.7,1.5,1.5v8.8"/>
		<path class="st4" d="M56.4,39.4V29.3c0-0.8-0.7-1.5-1.5-1.5s-1.5,0.7-1.5,1.5v1.3"/>
		<path class="st4" d="M50.5,37.2v-6.6c0-0.8,0.7-1.5,1.5-1.5s1.5,0.7,1.5,1.5v8.8"/>
		<path class="st4" d="M47.6,38.6v-1.3c0-0.8,0.7-1.5,1.5-1.5s1.5,0.7,1.5,1.5v4"/>
		<path class="st4" d="M50.5,53.6v-4.3c-1.8-1.1-2.9-2.8-2.9-4.7v-6.1"/>
		<path class="st4" d="M62.2,38.5v6.2c0,1.9-1.1,3.6-2.9,4.7v10.1"/>
	</g>
	<g>
		<path class="st4" d="M24.3,30.7c-0.8,0-1.5-0.7-1.5-1.5s0.7-1.5,1.5-1.5h5.2"/>
		<path class="st4" d="M21.7,33.7c-0.8,0-1.5-0.7-1.5-1.5s0.7-1.5,1.5-1.5h8.8"/>
		<path class="st4" d="M30.5,33.7H20.4c-0.8,0-1.5,0.7-1.5,1.5s0.7,1.5,1.5,1.5h1.3"/>
		<path class="st4" d="M28.3,39.5h-6.6c-0.8,0-1.5-0.7-1.5-1.5s0.7-1.5,1.5-1.5h8.8"/>
		<path class="st4" d="M29.7,42.4h-1.3c-0.8,0-1.5-0.7-1.5-1.5s0.7-1.5,1.5-1.5h4"/>
		<path class="st4" d="M47.6,39.5h-7.2c-1.1,1.8-2.8,2.9-4.7,2.9h-6.1"/>
		<path class="st4" d="M29.6,27.8h6.2c1.9,0,3.6,1.1,4.7,2.9h10.1"/>
		<path class="st4" d="M20.1,62.9c0,0.8-0.7,1.5-1.5,1.5s-1.5-0.7-1.5-1.5v-5.2"/>
		<path class="st4" d="M23.1,65.6c0,0.8-0.7,1.5-1.5,1.5s-1.5-0.7-1.5-1.5v-8.8"/>
		<path class="st4" d="M23.1,56.8v10.1c0,0.8,0.7,1.5,1.5,1.5s1.5-0.7,1.5-1.5v-1.3"/>
		<path class="st4" d="M28.9,59v6.6c0,0.8-0.7,1.5-1.5,1.5s-1.5-0.7-1.5-1.5v-8.8"/>
		<path class="st4" d="M31.8,57.6V59c0,0.8-0.7,1.5-1.5,1.5s-1.5-0.7-1.5-1.5v-4"/>
		<path class="st4" d="M28.9,42.6v4.3c1.8,1.1,2.9,2.8,2.9,4.7v6.1"/>
		<path class="st4" d="M17.2,57.7v-6.2c0-1.9,1.1-3.6,2.9-4.7V36.7"/>
	</g>
</g>
</svg>
