<?xml version="1.0" encoding="UTF-8" standalone="no"?>
<svg
   xmlns:dc="http://purl.org/dc/elements/1.1/"
   xmlns:cc="http://creativecommons.org/ns#"
   xmlns:rdf="http://www.w3.org/1999/02/22-rdf-syntax-ns#"
   xmlns:svg="http://www.w3.org/2000/svg"
   xmlns="http://www.w3.org/2000/svg"
   xmlns:sodipodi="http://sodipodi.sourceforge.net/DTD/sodipodi-0.dtd"
   xmlns:inkscape="http://www.inkscape.org/namespaces/inkscape"
   version="1.1"
   id="Layer_1"
   x="0px"
   y="0px"
   viewBox="0 0 80 80"
   style="enable-background:new 0 0 80 80;"
   xml:space="preserve"
   sodipodi:docname="metric-category-ems.svg"
   inkscape:version="1.0.1 (0767f8302a, 2020-10-17)"><metadata
   id="metadata405"><rdf:RDF><cc:Work
       rdf:about=""><dc:format>image/svg+xml</dc:format><dc:type
         rdf:resource="http://purl.org/dc/dcmitype/StillImage" /></cc:Work></rdf:RDF></metadata><defs
   id="defs403" /><sodipodi:namedview
   pagecolor="#ffffff"
   bordercolor="#666666"
   borderopacity="1"
   objecttolerance="10"
   gridtolerance="10"
   guidetolerance="10"
   inkscape:pageopacity="0"
   inkscape:pageshadow="2"
   inkscape:window-width="2051"
   inkscape:window-height="1545"
   id="namedview401"
   showgrid="false"
   inkscape:zoom="12.6"
   inkscape:cx="40"
   inkscape:cy="40"
   inkscape:window-x="72"
   inkscape:window-y="27"
   inkscape:window-maximized="0"
   inkscape:current-layer="Layer_1" />
<style
   type="text/css"
   id="style364">
	.st0{fill:#73797C;}
	.st1{enable-background:new    ;}
	.st2{fill:#FFFFFF;}
	.st3{fill:#FFFFFF;stroke:#FFFFFF;stroke-width:0.25;stroke-miterlimit:10;}
</style>
<rect
   class="st0"
   width="80"
   height="80"
   id="rect366"
   style="fill:none" />
<g
   class="st1"
   id="g374">
	<path
   class="st2"
   d="M25.4,8.1H32v1.7h-4.6v2H32v1.7h-4.5v2.2h4.6v1.7h-6.6L25.4,8.1L25.4,8.1z"
   id="path368" />
	<path
   class="st2"
   d="M41.7,10.7l-2.6,6.7h-0.9l-2.6-6.7v6.7h-2V8.1h2.8l2.3,5.8L41,8.1h2.8v9.3h-2L41.7,10.7L41.7,10.7z"
   id="path370" />
	<path
   class="st2"
   d="M46,14.6c0.7,0.7,1.7,1.3,3,1.3c1.1,0,1.6-0.5,1.6-1.1c0-0.7-0.8-0.9-1.9-1.2c-1.5-0.3-3.5-0.8-3.5-2.9   c0-1.6,1.3-2.8,3.5-2.8c1.5,0,2.7,0.4,3.6,1.3l-1.1,1.5c-0.8-0.7-1.8-1-2.7-1s-1.4,0.4-1.4,1s0.8,0.8,1.9,1.1   c1.5,0.3,3.5,0.8,3.5,2.9c0,1.7-1.2,3-3.7,3c-1.8,0-3.1-0.6-4-1.5L46,14.6z"
   id="path372" />
</g>
<g
   id="g398">
	<rect
   x="32.5"
   y="30.7"
   class="st3"
   width="1"
   height="1"
   id="rect376" />
	<rect
   x="27.4"
   y="41.4"
   class="st3"
   width="17.7"
   height="1"
   id="rect378" />
	<rect
   x="27.4"
   y="56.3"
   class="st3"
   width="7"
   height="1"
   id="rect380" />
	<rect
   x="27.4"
   y="48.9"
   class="st3"
   width="10.9"
   height="1"
   id="rect382" />
	<rect
   x="27.4"
   y="63.9"
   class="st3"
   width="9.3"
   height="1"
   id="rect384" />
	<polygon
   class="st3"
   points="21.9,42.5 20.5,41.1 19.8,41.8 21.9,43.9 26.6,39.2 25.8,38.5  "
   id="polygon386" />
	<polygon
   class="st3"
   points="21.9,49.9 20.5,48.6 19.8,49.3 21.9,51.4 26.6,46.7 25.8,46  "
   id="polygon388" />
	<polygon
   class="st3"
   points="21.9,57.4 20.5,56 19.8,56.8 21.9,58.8 26.6,54.2 25.8,53.4  "
   id="polygon390" />
	<polygon
   class="st3"
   points="21.9,65 20.5,63.6 19.8,64.3 21.9,66.4 26.6,61.8 25.8,61  "
   id="polygon392" />
	<path
   class="st3"
   d="M50.7,53c-0.7-0.3-1.3-0.4-2.1-0.4c-2.2,0-4.2,1.3-5,3.3c-0.5,1.3-0.5,2.8,0,4.1c0.6,1.3,1.6,2.4,2.9,2.9   c0.7,0.3,1.3,0.4,2.1,0.4c2.2,0,4.2-1.3,5-3.3C54.8,57.3,53.5,54.1,50.7,53z M52.7,59.7c-0.7,1.6-2.3,2.7-4,2.7   c-0.6,0-1.1-0.1-1.7-0.3c-1.1-0.4-1.9-1.3-2.4-2.4c-0.4-1.1-0.5-2.3,0-3.3c0.7-1.6,2.3-2.7,4-2.7c0.6,0,1.1,0.1,1.7,0.3   C52.6,54.9,53.6,57.4,52.7,59.7z"
   id="path394" />
	<path
   class="st3"
   d="M56.8,59c0.1-0.7,0.1-1.4,0-2l2.4-1.4l-1.4-3.4L55.1,53c-0.4-0.5-0.9-1-1.4-1.4l0.8-2.7l-3.4-1.4l-1.4,2.4   c-0.2,0-0.3,0-0.5,0V33H42v-2.4h-5.2c-0.3-1.9-1.9-3.3-3.8-3.3c-1.9,0-3.5,1.4-3.8,3.3H24V33h-7.2v39.3h32.4v-6.2   c0.2,0,0.4,0,0.5,0l1.4,2.4l3.4-1.4l-0.8-2.7c0.5-0.4,1-0.9,1.4-1.4l2.7,0.8l1.4-3.4L56.8,59z M25,31.6h5.1v-0.5   c0-1.5,1.3-2.8,2.8-2.8c1.5,0,2.8,1.3,2.8,2.8v0.5h5.1v3.2H25V31.6z M48.2,71.3H17.8V34H24v1.8h18V34h6.2v15.8c-0.2,0-0.3,0-0.5,0   l-1.4-2.4l-3.4,1.4l0.8,2.7c-0.5,0.4-1,0.9-1.4,1.4l-2.7-0.7l-1.4,3.4l2.5,1.4c-0.1,0.7-0.1,1.4,0,2l-2.4,1.4l1.4,3.4l2.7-0.8   c0.4,0.5,0.9,1,1.4,1.4l-0.7,2.7l3.4,1.4l1.4-2.5c0.2,0,0.3,0,0.5,0v5.3C48.4,71.3,48.2,71.3,48.2,71.3z M57.3,62.5l-2.5-0.7   c-0.6,0.9-1.4,1.7-2.2,2.2l0.7,2.5l-1.7,0.7L50.3,65c-1.1,0.2-2.1,0.2-3.1,0l-1.3,2.3l-1.7-0.7l0.7-2.5c-0.8-0.5-1.6-1.3-2.2-2.2   l-2.5,0.7l-0.7-1.7l2.3-1.3c-0.2-1-0.2-2,0-3.1l-2.3-1.3l0.7-1.7l2.5,0.7c0.6-0.9,1.4-1.7,2.2-2.2l-0.7-2.5l1.7-0.7l1.3,2.3   c1.1-0.2,2.1-0.2,3.1,0l1.3-2.3l1.7,0.7L52.6,52c0.9,0.6,1.7,1.4,2.2,2.2l2.5-0.7l0.7,1.7l-2.3,1.3c0.2,1.1,0.2,2.1,0,3.1l2.3,1.3   L57.3,62.5z"
   id="path396" />
</g>
</svg>
